<mxfile host="app.diagrams.net" modified="2023-09-05T20:53:19.962Z" agent="Mozilla/5.0 (Windows NT 10.0; Win64; x64) AppleWebKit/537.36 (KHTML, like Gecko) Chrome/116.0.0.0 Safari/537.36" etag="YlWIKlbQn29k1BRCGuF6" version="21.7.2" type="github">
  <diagram name="Page-1" id="MtPlXx6twBdSfuBli1HX">
    <mxGraphModel dx="2045" dy="658" grid="1" gridSize="10" guides="1" tooltips="1" connect="1" arrows="1" fold="1" page="1" pageScale="1" pageWidth="850" pageHeight="1100" math="0" shadow="0">
      <root>
        <mxCell id="0" />
        <mxCell id="1" parent="0" />
        <mxCell id="-XMaczKUDBnWbmXJlEGY-1" value="Create NewText Campaign" style="text;html=1;strokeColor=none;fillColor=none;align=left;verticalAlign=middle;whiteSpace=wrap;rounded=0;" parent="1" vertex="1">
          <mxGeometry x="160" y="70" width="190" height="30" as="geometry" />
        </mxCell>
        <mxCell id="ckLJkR33WfwNbVA9dTh0-1" value="" style="rounded=1;whiteSpace=wrap;html=1;" vertex="1" parent="1">
          <mxGeometry x="160" y="120" width="280" height="40" as="geometry" />
        </mxCell>
        <mxCell id="ckLJkR33WfwNbVA9dTh0-2" value="Campaign Title" style="text;html=1;strokeColor=none;fillColor=none;align=left;verticalAlign=middle;whiteSpace=wrap;rounded=0;" vertex="1" parent="1">
          <mxGeometry x="170" y="120" width="120" height="40" as="geometry" />
        </mxCell>
        <mxCell id="ckLJkR33WfwNbVA9dTh0-3" value="" style="shape=image;verticalLabelPosition=bottom;labelBackgroundColor=default;verticalAlign=top;aspect=fixed;imageAspect=0;image=data:image/png,iVBORw0KGgoAAAANSUhEUgAAAY0AAAJ9CAYAAADJ3S5VAAAAAXNSR0IArs4c6QAAAARnQU1BAACxjwv8YQUAAAAJcEhZcwAADsMAAA7DAcdvqGQAAEptSURBVHhe7d3pc1T5nuf3+i8c4fCDeeKIcdgOt8MzjgmPwx4/GMdEx8x09INxtDvm9rRdvp6Ovte3Z27dHrq66tZVUeyLEDsIISGE0AYSq9iRgGIXiygQi9iEEBJCoBUKiSq+zs9PeVJHqaPUL1EilMr3K+IbmWfJk+dkJt9P/s5J4LNl+avt559/tpGREXv79i1FURRFTVqfLV25msCgKIqivOqzjYXFNjw8HLmQoiiKosLlRhpRCyiKoigquT5bsrIgcgFFURRFJddni1cQGhRFUZRffbaYkQZFURTlWbGRxqrIBRRFURSVXJ8tWp4fuYCiKIqikuuzhctWRi6gKIqiqOQiNCiKoijv+mwRoUFRFEV51mcLlxIaFEVRlF99tmDJ8sgF6dWQPb120S5fSK571h25fqyeNVrBysbR5S9i93/xhRWc6Yted9Iasu57zfHnarZ7z4ci1qEoisrNunb1h4nzrk2cl059tnzVmsgF6VW7HfrqC5u3ZLuVFIWr0R5Frh+rp4ct76vD9tRN99mja8326FV8WThQJqtn31vhr7+wz//9Slun59q42ub95Rf22/UXUz/Ot3z2wbs67fjKDXb8WdQyiqKozJcC4ze/+mpccCgwkuelWxkNjZIrUcvGarCtxY0KWtpiI4JxoaGRSrM97Yvdf37PLh8ptt/+TbEd1wjiXs+E7bx902Jlf/2F5VXfs1fj5j+0ltuh9d/EtnsrahQSPN+QDT4K7VOwPMU+DMaWXde8a7FR1GCwvbFKLL/VboNvNK/H7l04boV/k2eFR7QvKUZfFEVRGaxwcGQiMFQzExpv2u308q/s818ucaOCdd98ZfO+W2m/TYSGHr/EDj2N3b/faCXrV9pf/XKlFWoEcfLhhO0Nnim0v/hd3eSjGNWrK1by63n2V98UxkY8hZb3y3n226Ir8ZDR8+VZ3jd5o8vjo5S8A+2jj51kHx7VLbDP/+NqN69wSZ59/ouVo/vsttln14ti8xLHOM8+//V2u/7qoZ12z/+V5a2fYvRFURSV4QqCIxOBocpoaHz+7/Ni387HquBYp1v+qnGDfa4m7755q4aspeQr+4uo0ND0uFHIxHpUnWd/UXglctloDdn5NV/YvNhIJDHvTbMbnaw7qxHF6P6OW367xn77i2K7Huxj1D7ERi6J+7HSMfw2vo3Bs4UTjvHRvSDwko6PoihqhioYYczK0FjX2GOvXoQqfvrmeuEX9vXe+Lf4oO7XRY80ND1FaDw9sMT+Yv3FyGWjFRtl/NkC2982fr7C5q9KW2L39Xx5Vns/vFyPmWIf3nTa5V0aLYxWYWzEFIRX5DEmitCgKGrmK3xKKhhxTDc4ZuT0VEvpV/FmHZp/pdg+/8DQ0Kjg178otPPBhfMJ1WJlv/zKym6Nnz/W2KOa+FSh0WOnl39heTtb7Gk8FO/tWpAIDR1jMOqYWIQGRVEzW1EhkT0Xwm9VxJr8Stt/P35650WL1X7zRerTU78otss61ZM43ROuvlgAfGWf/7rYTj+K/0xXF70vbLfl8V9PPapeYJ9/s98exUc7r27XWd5fBtcgPENj3D7oMV9ZybX4MbyJTesYgtNksZHTvKRj3L+xwq6/CB77hRVeCh6reRRFUR+3osJBwZE8L53KaGj8xZ8l11gT7r5UYXm/jM//yyVWeawm9E0+uYm32+mVefa5WzfWuCN+paTguHeg0OYF24zVX/2u0A7dDkKkx67vXGJ/9YvRZZ//esPYsgnPp0oKjYh9eHWjxr7+y3n2a12z+fVqKywYf23l1bXYMQX784t5trxu7NddTxs32G/dvswbCw+KoqgsqwyFBkVRFJULRWhQFEVR3kVoUBRFUd5FaFAURVHeRWhQFEVR3kVoUBRFUd5FaFAURVHeRWhQFEVR3kVoUBRFUd5FaFAURVHeRWhQFEVR3vXZtwuWRi6gKIqiqOT67P/7j/MiF1AURVFUchEaFEVRlHe50AAAwAehAQDwRmgAALwRGgAAb4QGAMAboQEA8Ob+RjgAAD4IDQCAN0IDAOCN0AAAeCM0AADeXGi8f/8+sn7++edE/fRTvGL33/3002i9e+dqZGTE1U+xeXocAGB2Uo9Wrw76dtDHg76uHh/0+3AGBLkwaWiEV9YTTBUYWg8AkB3Us6cOjp/GZYGyITI0wiupgtRJbFC3ocDQfQBAdknu4663J/r8aN9PzoMpQyN4YDDKSA6M4eFh9xgAQHZR71YPjwqOyU5T+YVG7DZIH200OTQAANkpOTRcJQVHOBMmhEZ4oRJnqlGG/lMOAEB2Ug+ferQxdm1jitAYrSB1ghQKAmM0NBhpAEC2Ug8P+nkQGq6C4IjngH9oxG5HHxg1yhi2H39kpAEA2Uo9PAiOoL+r1yePNiJDY0JgxCpImyB9gsAgNAAg+4VDIwiOoN8H/T/Ig6lDI3Y7+oDJRxmEBgBkr6CP+442vEIjSJ0gMMKh8ebHH+NPDQDINurh4dAIgiPo+16hoXTRCi4wIkJDV9uDdCI0ACB7BaExGhxjv6QKh4YLDg0kYreJ0AgCYzQ0RiscGtrIWGiMjTJev3kTf2oAQLZRD08ebQT9fmJohEYaE0Ijdju64lhoaGOEBgDMHVGhEQSHen/ydY20Q0PDF0IDAOaG5NBIPkWVdmi44UlSaLjAeDMaGEOvX8efGgCQbdTDXXDEevpocERf15g0NJQqqUNj/CiD0ACA7JUIjaRTVJOGxrcLl0aGhguMeGjowYQGAMw9qUIjERzxPHChMX8RoQEAuSoDoTFayaGhjRAaADC3TBYaQXAQGgCAhLRD47vFyxKBMVVoRP3cNpOh0fms27aX1NqyRYVWXFjjpj+EQvDN6x/d7YfQrwh0mi5sYGDI7de83y4ZV6cbL8XXAIDsExUaE35BNS40liz/4NDQkw0ODcWfenpuNN+xHaV77Mc3o/8A4vDbEWu+djv2/OObt4++vgHbVrTL7euHqCo/YG2PO+JTE021HACyhXq4erl3aCxIMzS00UyHxsjIO6uuOGgD/YPxOeO13Gy1DWt2uFHI1s1V1tvb7+Y3nrxgG9fG5hfXuuUnj5+zkeERO7jvpH35u+VWunW3tT/pdCOWTevKXSitK9huN2/cc4/XiGJn2T63npY3nLgQW3bXfv93+W67585cceslC4dG0+Uf3P4Frl655aZPNVx0wVW8pcbtc23NkdjrOhqAeszWwmorK6lz+6T9AIBPITk0RoMjZWisSDs0wn+xLxOhoZHBvrrj8anxel70Wk1lfaLhvuh+abuqDrl9PHHsXKJh61RU3a4jLlCSRxpaFpyq0nKtp+mjh8/Y/XuP3XxNB6OadEYaCroDe0+6/VH41R9odM977PD3dvH8dbeOXLrQbFcu33THc7j+VGJ/tB1OcQH4VILQcKeoJvsLfuHQWLg0IjRitzMZGrr+oGCIOp2U3FS1zt7a4+5W88PNPWjmyaGhoCiPfaPX42prDsdGJWVumYJK6yZLJzRE4fPwwRMXYBppSPK+6X4wb/OGCqvf3+BKgXP+7LX4WgAws9IKjVg2pAwNfbufidAQnRrSaZvgG7hu9S3+RferSUcak4WGHqdTVkFonDl12TV1UYDolJGWJY80dB1FtP3wdpMlh4b2Sc1//54TiVNsqUYa4eMJXncA+BR8QsNlgTIh1qtmTWjouU4cPWsrlxa58/y61XUBNXN9gy+MfTvXNYCS2AgiuKYxWWjoGPbWHnO/wFKj7njaZVs2VrrTQju21VlF2T4XGjoOXdPQ9YUtmypduOj5frhx140GNBIZHh4NkrDk0NBjdE1GQRHQvgfXYDauK3eBEgSFjmdNfqlbrlGP9g8APoW0Q2PRspWzIjSymUJDgaRRRCA50ABgNiI0ZpAunGsEoV9eJf/SSqejGEEAmO0IDQCAtw8IjXxCAwByFCMNAIC3tENj8XJGGgCQqwgNAIA3QgMA4C1rQ6Ojo8Oam5utqamJoiiKSlHqleqZmZCVoaGDb21tddsHAKSmXqmemYngyMrQUGoSGADgTz1TvXO6sjI0NNwCAKQnE70z7dBYsmIVoQEAWYjQAAB4IzQAAN4IDQCAN0IDAOCN0AAAeCM0AADeCA0Peu7dNQds8cI1tmjBalu/tsRa7z2ML/1wOi4d53Tov319/fqNex0B4GMjNKbQ8+KlrV291W633HMNWoaGXtvRw41uv6bjUP1Ju37tZnzqw2gfSoorra+3Pz4HAMZ72fMqfm+iVMuiEBopKCR2Ve+3H27cjs+ZSAGys7zWvsvLt6WL1trpxvPumKTl1l07c/qibVi3zS1ftnidtbU9dcsunL9i33y9zBbMXxVbXmKdz55bX9+AlZfttoXzC2zBt6tsT+0h93rI8PCI7d971BZ+N7qspmqfDfQPWkV5nX05b6GtWLbBqir2uNfs1atet81v/7DSlsRGRyeOn0nsE4Dcop6S980Kqz94Ij5njM6Y/OZXX0UumwyhkYKeU9/i+2PNPIr2tay0JnGqSsdyKPbiNzacc9MaRazO3+KCRZ53vbDCTWVuu5I80tB6/bEgEAWWQkPBE4SXgkb3VXfv3Lfu7p7IkUZ15V579LDN3de6ej0B5CaNJBQMyeGgfhLMT+d0O6GRgp6zbPsuGxiIfr6Oji6X4trngL7ll5ZUxfZ72AVCECCS3OCjTk8NDg7ZzZt3rOnydXcdRcv1/Hqcrl0kiwqNo0cabfu2Gnv4oM0tB5DbkoPjQwNDCI0U9C1dp3/u3n0QnzOeQkOnhLReIDk0wqEwVWhcu3rTLe/q7HbrnPv+sluukY7m6zVIFhUa2p8XL17apQtXrWjzDreP4WADkHsUHDpNFYSF7n/ID3oIjSm0PX5q61ZvdU04oOsLd263un3aVlzlvtGLmvX3Zy7ZkUMNbnqq0Dh/rsmuNI39M8O6uK5RhmhbOj2lx+u+Rh1Nl8fW1akunc7S61VVsdeFVUCBFQSZ9lHPOdkpNgC5IwiODw0MITQ8dHY+t4L8QveTW11g1sXoSxevucasZr2moMg2rS+1FUs3WO3uehcqMlVo6JdZBSsL3WMvX7rmRhh6Hq2jebpeEjw+aP6rV21xpfuaJwoePbdGFdrG/n1H3cV0raPt6xRZECIAclu6v5ZKRmgAALwRGgAAb4QGAMAboQEA8EZoAAC8ERoAAG+EBgDAG6EBAPCWs6HR3Nzstg0A8KOeqd45XVkZGh0dHdba2kpwAIAH9Ur1TPXO6crK0BAdvFJTwy2Koihq8lKvzERgSNaGBgBg5hEaAABvhAYAwBuhAQDwRmgAALwRGgAAb4QGAMAboQEA8EZoAAC8ERoAAG+EBgDAG6EBAPBGaAAAvBEaAABvhAYAwBuhAQDwRmgAALxldWh0Puu27SW1tmxRoRUX1rjpD/H+/Xt78/pHd/shdHw6dgCY67I2NG4037EdpXvsxzej/0/48NsRa752O/b86Tfvvr4B21a0K7a/w/E56akqP2BtjzPzXykCwGyWlaExMvLOqisO2kD/YHzOeC03W23Dmh1uFLJ1c5X19va7+Y0nL9jGtbH5xbVu+cnj52xkeMQO7jtpX/5uuZVu3W3tTzrdiGXTunIXSusKttvNG/fc43UcO8v2ufW0vOHEhdiyu/b7v8t32z135opbR9sPnvvWD6OPBYC5ICtDQyODfXXH41Pj9bzotZrKercv8qL7pe2qOuT288Sxcy5QRKei6nYdcYGSPNLQsuBUlZZrPU0fPXzG7t977OZrOhjVhEcaulUYBY8HgLkkK0ND1x8UDFGnk9S0Tzdeik+ZW2dv7XF3q/nh00hBs08ODQVFeWyUocfV1hyOjUrK3DIFldZNFg4NvQanGy7ZqmVbbVtsRPK8q8fNB4C5ICtDQ3RqqOnyD4lv9LrV6aoX3a8mHWlMFhp6nE4pBaFx5tRle/jgibuvACneUuOWJY80dB1FtP1gu5of7NOrl322Z/dRdx8A5oKsDQ0914mjZ23l0iJ37UG3pxouuoatU1CFGyqsrKTOSmIjiOCaxmShoWPYW3vM/QLryuWb1vG0y7ZsrLTD9adsx7Y6qyjb50JDx6FrGlsLq23LpkoXLnq+H27ctc2x59NI5HbLfXcdRPukdW5cvx1/NgDIflkbGgCAmUdoAAC8ERoAAG+EBgDAG6EBAPBGaAAAvBEaAABvWRsaHR0d1tzcbE1NTRRFUVSKUq9Uz8yErAwNHXxra6vbPgAgNfVK9cxMBEdWhoZSk8AAAH/qmeqd05WVoaHhFgAgPZnonYQGAOQIQgMA4I3QAAB4IzQAAN4IDQCAN0IDAOCN0PhInne9sKGh1/EpAJgbCI0p6HmrK/fakoVrbOnidbZpfal1dj6PL51cY8M5e/yoPT6VPr0ur1+/Sfxf4QAwGxAaKahh7645YLdb7sXnjIbIwMDUzz/d0Ojr7beS4kp37AAwHS97XsXvTZRqWRRCIwXtQ1lpjXV398TnjPc2tl811fvtu7x8W7RgtZ08fsYdj4RDI9V6OoW1s7w2sezo4Ubr6+u3zRu325fzFlr+ik128MBxty4ApKu8bLflfbPC6g+eiM8Z03rvof3mV19FLpsMoTGFK03NtnB+gQuB3ti3/+B0UTAKabo8+u+waPrIoQa7dPGamw5CI9V6w8MjVlxU4d440WvR3NwSG8kMMtIAkBEaSSgYksPhwvkriflBD/JBaHjQvrTcuusSe+mitdbW9tSdotpWXGVdnd2uwaseP253ASFBaKRar6Ojy21Tx5yM0ACQKcnB8aGBIYRGmrq6umOjg53W3f3S3epXUkEYqAYHh9xoIgiN/r6BSddT+FSU17n1k2kdQgNApig4dJoqCAvdTzcwhNBIQfvy6GGb28eAQmP7turYvo1YXe2hCRfJNV/Cp6cmW0+lUcjDB21uvtZtb3/m5uuXU5U797h1A7o/+nr9FHtdhsfNA4CpBMHxoYEhhEYK2jcN4/Rz26LNO9zF6TUFRYmf3GqfNBpYsXSDW7Zu9VZ79arXLQtCQ1Ktp1ttUz/l1fK63fXuNVCAHDtyygpWFrrHar31a0vszu1Wu9HcYps2lLqL6ME8APCR7q+lkhEaAABvhAYAwBuhAQDwRmgAALwRGgAAb4QGAMAboQEA8EZoAAC85WxoNDc3u20DAPyoZ6p3TldWhkZHR4e1trYSHADgQb1SPVO9c7qyMjREB6/U1HCLoiiKmrzUKzMRGJJ2aMxfuHxWhAYAYOZl7UgDADDzCA0AgDdCAwDgjdAAAHgjNAAA3ggNAIA3QgMA4I3QAAB4IzQAAN4IDQCAN0IDAOCN0AAAeCM0AADeCA0AgDdCAwDgLSdCQ/vw/v37+NQY7e/w25H4FABgKlkfGo0nL9j1qy3xqWj76o5bX99AfGpM2+MOO914KT41RvurYwEAjJfVoTHQP2hV5QesuuJg7LmG43MnSjc0tE0tAwCMl9Whce7MFWu52WpXr9xyt4G7dx7a2lWltqN0j20r2mVFm6pcaOhUVNXOA7Z1c5UVb6lxy041XIw/atStH+7Z7/8u3zau3eG2HzymdOtu97g9u4+6Yw5va3txrVXs2G+1NYfdNpqv3bbNGyrc82v+j2/euvkAkO2yNjS0TY0gRkbeuRHH7urD7r7mV5bvt6GhN2493W7ZWOlC48rlm3bpQrObLxfPX7djh7+PT40JjzR0LSS4HqLbul1HrLe33y6cu2ZXm266+XLvziMr377X3VewvHrZ5+4DwFyStaGh6xhq7hplqBQMDx88ceGgMAkLTk/pVFT4tJPP6Skd05H60+4UWP3+Blu2qDDxuPC2FCR7a4+5+8+7emxbbGSyatlWO91wyW0DAOaCrAwNjShqKuutq/OFCwOVGvj+PSdscPD1tEcau6oOJQLhaXunnTx+zt3XSKOibJ9bdrvlvh09fCYxEjl+9Kw7TSV6TUTz9dhwuABANsvK0FDD/v50U3xqlBq0QuNZx3Nrf9LprmnomoWquLDGhYb2T+tsXFc+ei2ipHbCNQ354cZdd01CI5SBgSF3XUL3FRi6tqEQ0PNdi41wClYUu+dSAGmkMTw84kYlWwurraykzl3X0PEDwFyQlaExG2i08/r16GhGdCH+3PdX41MAMDcRGh9Iv4jSyGLJgk228Nv1Vrf7KH9REMCcR2gAALwRGgAAb4QGAMAboQEA8EZoAAC8ZW1odHR0WHNzszU1NVEURVEpSr1SPTMTsjI0dPCtra1u+wCA1NQr1TMzERxZGRpKTQIDAPypZ6p3TldWhoaGWwCA9GSidxIaAJAjCA0AgDdCAwDgjdAAAHgjNAAA3ggNAIA3QuMjed71woaGXsenAGBuIDSmoOetrtxrSxausaWL19mm9aXW2fk8vnRyjQ3n7PGj9vhU+vS66H/1038JCwCzBaGRghr27poDdrvlXnzOaIjo//yeynRDo6+330qKK92xA8B0vOx5Fb83UaplUQiNFLQPZaU11t3dE58z3tvYftVU77fv8vJt0YLVdvL4GXc8Eg6NVOvpFNbO8trEsqOHG62vr982b9xuX85baPkrNtnBA8fdugCQrvKy3Zb3zQqrP3giPmdM672H9ptffRW5bDKExhSuNDXbwvkFLgR6Y9/+g9NFwSik6fLov8Oi6SOHGuzSxWtuOgiNVOsND49YcVGFe+NEr0Vzc0tsJDPISANARmgkoWBIDocL568k5gc9yAeh4UH70nLrrkvspYvWWlvbU3eKaltxlXV1drsGr3r8uN0FhAShkWq9jo4ut00dczJCA0CmJAfHhwaGEBpp6urqjo0Odlp390t3q19JBWGgGhwccqOJIDT6+wYmXU/hU1Fe59ZPpnUIDQCZouDQaaogLHQ/3cAQQiMF7cujh21uHwMKje3bqmP7NmJ1tYcmXCTXfAmfnppsPZVGIQ8ftLn5Wre9/Zmbr19OVe7c49YN6P7o6/VT7HUZHjcPAKYSBMeHBoYQGilo3zSM089tizbvcBen1xQUJX5yq33SaGDF0g1u2brVW+3Vq163LAgNSbWebrVN/ZRXy+t217vXQAFy7MgpK1hZ6B6r9davLbE7t1vtRnOLbdpQ6i6iB/MAwEe6v5ZKRmgAALwRGgAAb4QGAMAboQEA8EZoAAC8ERoAAG+EBgDAG6EBAPCWs6HR3Nzstg0A8KOeqd45XVkZGh0dHdba2kpwAIAH9Ur1TPXO6crK0BAdvFJTwy2Koihq8lKvzERgSNaGBgBg5hEaAABvhAYAwBuhAQDwRmgAALwRGgAAb4QGAMAboQEA8EZoAAC8ERoAAG+EBgDAG6EBAPBGaAAAvKUdGvMXLic0ACBHMdIAAHgjNAAA3giNkHcj71wBAKJlbWjcaXngKpNuNN9xBQCIlrWh8TEaPKEBAKnNudBouvyDbS2strKSOttRusc9d+ezbtu0rtxNryvYbjdv3HPr9vcPWtGmKivduts9ZlvRrgnbbHvcYRvW7HCP1fLe3n63zZ1l+9zjtmyqtDOnLtv79+8n7FN4uvHkBdu4doftrj7sHt9ys9Vtd3tJrW2M7dvLl302OPjaymPPo33Xdm9cv+0eCwCzxZwKjZ4XvXa4/pRr4KKGf7rxkpsO5qnp1+064qaPHj5j9+89dvM1va/u+IRtnmq4aA/vP4lPjUp+3JH60/bwwZMJ+xSePnHsnAsK0X7WVNa710t0q+00HD9vzzqex+f9bPX7G6yvd8BNA8BsMKdCQyGxeUOFa7aqA3tP2vmz11xQ6Bv83trjVltzOPYNvyy2b8MuJPr6xppy1DY1GqmuOGgrlxbZwX0NNvx2ZNLHJT8+PK3w0v5JEGbJqsoPuP0L9n//nhP2sqc3vhQAPr05N9IIf4MP9lGnjzQSEAVI8ZYaFxo+Iw0dX+DK5Ztu+WQjDYVBw4kLifnh7YVDI3k/370bfe3C2xV+yQVgtsnq0ChYUeyuNajqdh91z6NTQGvyS921Ao0oOp52udqysdKdutqxrc4qyva50ND6euzWzVWJax7h0NDxHT10xgpjo5dgPV170OMqy/fb9uJady3k+/g1DR1/bc0Rt17yNZJwaEh4P7V++FqJHqvn1GgjHFoA8KllbWgAAGZe2qGxfNUaQgMAchShAQDwRmgAALwRGgAAb4QGAMAboQEA8Ja1odHR0WHNzc3W1NREURRFpSj1SvXMTMjK0NDBt7a2uu0DAFJTr1TPzERwZGVoKDUJDADwp56p3jldWRkaGm4BANKTid5JaABAjiA0AADeCA0AgDdCAwDgjdAAAHgjNAAA3j5JaPzhu8VzPjSed72woaHX8SkAmBs+SWgsWpafNaGh562u3GtLFq6xpYvX2ab1pdbZ+Ty+dHKNDefs8aP2+FT69Lq8fv3G/RewADBbfJLQyJbTU2rYu2sO2O2We/E5oyEyMDD18083NPp6+62kuNIdOwBMx8ueV/F7E6VaFoXQSEH7UFZaY93dPfE5472N7VdN9X77Li/fFi1YbSePn3HHI+HQSLWeTmHtLK9NLDt6uNH6+vpt88bt9uW8hZa/YpMdPHDcrQsA6Sov221536yw+oMn4nPGtN57aL/51VeRyyZDaEzhSlOzLZxf4EKgN/btPzhdFIxCmi6P/jssmj5yqMEuXbzmpoPQSLXe8PCIFRdVuDdO9Fo0N7fERjKDjDQAZIRGEgqG5HC4cP5KYn7Qg3wQGh60Ly237rrEXrporbW1PXWnqLYVV1lXZ7dr8KrHj9tdQEgQGqnW6+joctvUMScjNABkSnJwfGhgCKGRpq6u7tjoYKd1d790t/qVVBAGqsHBITeaCEKjv29g0vUUPhXldW79ZFqH0ACQKQoOnaYKwkL30w0MITRS0L48etjm9jGg0Ni+rTq2byNWV3towkVyzZfw6anJ1lNpFPLwQZubr3Xb25+5+frlVOXOPW7dgO6Pvl4/xV6X4XHzAGAqQXB8aGAIoZGC9k3DOP3ctmjzDndxek1BUeInt9onjQZWLN3glq1bvdVevep1y4LQkFTr6Vbb1E95tbxud717DRQgx46csoKVhe6xWm/92hK7c7vVbjS32KYNpe4iejAPAHyk+2upZIQGAMAboQEA8EZoAAC8ERoAAG+EBgDAG6EBAPBGaAAAvBEaAABvhAYAwFvOhkZzc7PbNgDAj3qmeud0ZWVodHR0WGtrK8EBAB7UK9Uz1TunKytDQ3TwSk0NtyiKoqjJS70yE4EhaYfG779dOCtCAwAw89IOjSUrVhEaAJCj0g6N2XJ6CgAw8wgNAIA3QgMA4I3QAAB4IzQAAN4IDQCAN0IDAOCN0AAAeCM0AADeCA0AgDdCAwDgjdAAAHgjNAAA3nImNN6/f+/2L9O0TW0bAHJB1odG48kLdv1qS3xqcvfvPbbDB0+5+2/fDtu7kXfufrp0LOHwqd/fYA/vP4lPfbjTjZfsTsuD+NSoY4e/t4EBRmYAZo+sDo2B/kGrKj9g1RUHXRD4OnrojN1ovhOfSo+er+1xZv4HrLCofdpXd9z6+gbiUwDw6WV1aJw7c8Vabrba1Su33G2g/UmnbVxXbjtK99jaVaWuyav0bV7LFuSts4IVxe6b/N3Yt/vzZ6/GH2n28METO/f9FTtSf9q2bq6y0q27bVusFEq3frhnv/+7fNu4dod7btE2tW0d+8F9De4xKt3XPFHQaF5ZSZ2tyd9mzdduu/lhqUJDVbSpyrYV7Rp3TKLXdmfZPrefWzZV2plTl93pMi1fv7rMSmKP0eO2Fla7dQFgOrI2NLRNNdWRkXduxLG7+rC7r/mV5fttaOiNWy/YzyA0JNyg9RhtR4/TsRyuP2WvXva5+4GGExcSTTp5pBGExpXLN+3Sheb4XHP3NU9qKuvtWcdzd1+vR23NEXcbNlVobNlYmTgm3eoYtc9HD59xp95EYaGwU/Bpn/bWHktcb9EpPJ/TeACQStaGhhqgGrhGGSo1VTVLNVg122SThYYEIxU19obj512jPX/2mpXHvtXrmsWqZVsT608WGsFtIPx8QfMXjVj0zT+YDpw4ejZlaCQfU7AsvG3RNlTh5xfN03EDwHSkHRpf5y345KGh0YG+vXd1vkg0VTXJ/XtO2ODg63EjjdF9+mlcE01u0FpX38o1ylBwaOSyZ/fRxLd0XUAP1t9VdWhcOARhkWqk4RMaCjyNEoLn1D7oWo2OVet+yEiD0ACQaWmHxrL81Z88NG633LfvTzfFp0apYSo01PR13WLDmjLbXlLrrm1oOtxEn7Zr+Q4XPP2x5iynGi5a+fa9o8cTq0MHGt2oQo1b1yKC0Pjhxl3bvKHCBcHw8EgiNHTs9bHHFG+pcaX7mic+oaH91z6sK9ju9lvXLbTfonWLC2vc41ThZXptFSDbi2vddYvvQ9c0CA0AmZZ2aMy2n9zmAoWGggcAPjVCIwvo72rol14A8KkRGgAAb4QGAMAboQEA8EZoAAC8ERoAAG9ZGxodHR3W3NxsTU1NFEVRVIpSr1TPzISsDA0dfGtrq9s+ACA19Ur1zEwER1aGhlKTwAAAf+qZ6p3TlZWhoeEWACA9meidhAYA5AhCAwDgjdAAAHgjNAAA3ggNAIA3QgMA4I3Q+Aj6evvd/k6X/ve8510v3GsEALPBJwmN2fDfvaZz4Hru3TUHbPHCNbZowWpbv7bEWu89jC+daG/dYbvSNPoXYLTvOpYPMTT42rZu2Wk9L17G5/jR8z9pi/5bm2dOX7TGhnPxqcnpfXn9+o0LLgAIfJLQ+DpvYdaEhhr22tVb7XbLvUQDHRp6bUcPN7r9msqh+pN2/drN+NTMKC2pioVNuXstwzRqyfv9crdPU9FoqaS40usYAcxuL3texe9NlGpZFEYaKSgkdlXvtx9u3I7Pmajl1l07fuy0rSkoslON59288+earL39mV04f8W++XqZLZi/yjasK7HOZ8/dNi9dvGZLF6217/LybVtxlQshSd7W27fDduRwg7vV45ouN1v+ik3ucSuXb7S2tqfuccn21B6y6qp9idGO6PEagdTFlgWhMdm+DA4O2eaN2+3LeQvd8x08wP8tDmSr8rLdlvfNCqs/eCI+Z4zOmPzmV19FLpvMJwmNbLmmoefUt+3+voH4nIk0ilidvyXR+EWnfx4/anf3k0cat27etcqdde445eGDNttZXuumk7el41aT160afPj6RldXt23fVu1ep2QKjaex0Nq5o9ad4pK7dx+4bV27ejMRGqn2hZEGMDdoJKFgSA4HfakN5qc63Z6M0EhBz1m2fZcNDEz+fGr0R480xqdGpQqN2t31dqO5xTVlVW+sqir2uPvJ2wqHhui1efq0MzbiuO5GMzti+xbV1BUa2p4C4tjRU7HXcST2HHvdh0fPEYRGqn1RERrA3JAcHB8aGEJopKBv9xXlde5b+mTUhMOhIKlCo7pyr9384U6iMas0ktFxJ29Lxx2EhqqosNydTtJjNOrQqTPNTxaEhrap/df0mVMX3DJtPwiNVPui+4QGMHcoOHSaKggL3U83MITQmELb46e2bvVWexH6BZO+ud+53er2NbnRSzg0NCIIX1vQKaF9e4644xZtQ79SklShoSauUY+eWxQaxUU7I5t6EBqi/df1iWC9cGik2hfdVu7c4153AHNDEBwfGhhCaHjo7HxuBfmF7ie3uqC98LsC941fI5GpQkO/vipYWWib1pfa5Uujj2k4edYWzi+wos07bNnide4UkaQKDb0uavarV22J/zpqp7tmEYRBWDg0koVDI9W+aNmxI6fcvmvEEb5mAyB7KTimg9AAAHgjNAAA3ggNAIA3QgMA4I3QAAB4IzQAAN4IDQCAN0IDAOCN0AAAeMvZ0GhubnbbBgD4Uc9U75yurAyNjo4Oa21tJTgAwIN6pXqmeud0ZWVoiA5eqanhFkVRFDV5qVdmIjAka0MDADDz0g6NJStWERoAkKPSDo1v5i8iNAAgR6UdGsvyVxMaAJCj0g4NrmkAQO4iNAAA3ggNAIA3QgMA4I3QAAB4IzQAAN4IDQCAN0IDAOCN0AAAeCM0AADeCA0AgLecCI13736y9+/fx6fSp8fq2AAg12V1aHQ+67btJbW2bFGhFRfWuOlk70be2a6qQ/ai+6Vr/m9e/5h2gNy/99gOHzwVnwKA3JW1oXGj+Y7tKN1jP74Z/S9fh9+OWPO1225UMZm+vgHbVrQrtl/D8TkAgHRkZWiMxEYP1RUHbaB/MD5nvMaTF2zj2h22u/qwe+59dcetp6fXDu47aV/+brmVbt1t7U863XZqa47Y9uJa21pYbacaLrpRSNvjDlu/usxKYgGj9TR9uvGSC6aqnQfc47durrI9u4+64weAXJGVoaERg4JgMieOnbOWm63xKXPr6jHJI42rV26NW0/BoIBQ7a09ljiNFYSGpoN5uq3bdcR6e/vdNADkgqwMDV2XqKmsTzT/ZEHzD0wWGiePn7Py7Xutfn+DK40cwiOLQDCt4ztSf9qNcrS+rqWEnwcA5rqsDA1pOHHBmi7/MO6bv05X6Xay0NBynYoKQuPK5Zt26UKzuy/Br6wmC42n7Z0uaETrVZTtIzQA5JS0Q2PRsvxZERp6rhNHz9rKpUXugrhug2sSk4WG9lWnnfRLKwWGtnFg70kr3FDhrmkoBBQok4WGllXs2O+2p3V1bYPQAJBL0g6NvAVLZkVoAABmXtqhsSx/NaEBADkq7dCYLdc0AAAzj9AAAHgjNAAA3ggNAIA3QgMA4C1rQ6Ojo8Oam5utqamJoiiKSlHqleqZmZCVoaGDb21tddsHAKSmXqmemYngyMrQUGoSGADgTz1TvXO6sjI0NNwCAKQnE72T0ACAHEFoAAC8ERoAAG+EBgDAG6EBAPBGaAAAvBEaWUqv2+NH7a50Px1DQ6+tv38wPjU1vSftTzrcLYDcRmhMob39ma1YtsEKVha6Wrp4ne0sr7WXL3vja6Sm49D+Z9rB/cds/96j1nS52b02YTXV+8ft88plG+3ypWuJcDl39rIdqj/p7kdJ3mfdr6s99FGOA0B2ITSmoG/ylTvr4lOjXnT32KYNpfbwQVt8zuSuX7uZskF/CL02O3fUWl9vf3zOeNpf7XdgeHjEykprrOXW3fic1JL3mdAAstvLnlfxexOlWhblk4TGwqUrsjo05HnXCyvcVOb2q69vwMrLdtvC+QW24NtVtifWYHUcrfce2oL5q+ybr5e5b/yaljt37lv+is32XV6+rV9bbC9evHTzk7U9fmqrV21x6+lW03pNKsrr7Mt5C91ooqpij5sXlhwaohA4f270mBUeQYDoNNXeusNWU7XPiot22q3Y/OR9dqGxu96OHGqwpYvWumWa1jECmN3Um/K+WWH1B0/E54zRn+/f/OqryGWT+SSh8e3CpVkfGu/fv3fN+0lbx7hrBJqv0AiacvK39qdPO23rlp3ueKQnFhglxZWJ6YBCqaiw3G1bdLt1S7l7vF4PPWaykYY+JHrOpsvXXR0/dtq2bN6RWF/7pBLN0ym3+62P3LREjTTWrSm2SxeuuuNTKWguxqYBzG4aSSgYksPhwvkrifnBF1ofnyQ0sv30VCD8jX5wcMhu3rzjmvTumgOJppzcgBsbztmZUxdcsw7q4IHjE0YGWi8YGQSuNDXb0SONaYeGtqOmf6O5xS1PDo3SkurY6zw2WokKDW1zYGDsdU9eB8DslRwcHxoYQmhMYbLQ6O8bcKen1EivXb3pmnhXZ7drwue+v5xoysnNVU1fy4PACErHG6bQUEiE+YZG1Omp7u4eKy6qcOGgfQr2T9vQyCgseZ/1fMnXNJLXATC7KTh0mioIC91PNzCE0JhCVGhoX/TtXL9ckqOHG90oQ4LTU0FTvnf3gWv0AZ1e0kVsXZwWrR/+Bh9IPo2l9bdvq3b78yGh8eDBY7c9va5ThUbyPhMawNwQBMeHBoYQGlNQ8/3675e4i7+qvN8vdxeI79657xq+aIRRkF/oGvmm9aXul0pBU9Z+a0SyYd22RJPVaSJdNN+8cbutWLrBjSqCbYVpvcUL11jR5h3u9vq1W269qUJj+7Ya9+uusu27XNAsiT12TUGRdXY+d8unCo3kfSY0gLkj3V9LJSM0AADeCA0AgDdCAwDgjdAAAHgjNAAA3ggNAIA3QgMA4I3QAAB4IzQAAN5yNjSam5vdtgEAftQz1TunKytDo6Ojw1pbWwkOAPCgXqmeqd45XVkZGqKDV2pquEVRFEVNXuqVmQgMydrQAADMPEIDAOCN0AAAeEs7NL5bvIzQAIAcRWgAALylHRqcngKA3EVoAAC8ERoAAG+EBgDAG6EBAPBGaAAAvBEaAABvhAYAwBuhAQDwRmgAALzlbGi8f/8+tq8/xacAAD6yPjQaT16w61db4lOTU0i8ef2ju5XnXT22q+pQ2sHx9u2wvRt5F58CgNyS1aEx0D9oVeUHrLrioGvmqfT1Ddi2ol1TrjeVo4fO2I3mO/EpAMgtWR0a585csZabrXb1yi13G2h/0mkb15XbjtI9tnZVqT24/8QO7jtpX/5uuZVu3e2WK0T21R23oaE3trf2WGyfR0cP2lfNv33rvm1YsyOxjaftne5xC/LWWcGKYjt2+Hs34rjf2mZFm6rcels3V9nLl31uOwAwF2VtaATNXc1eI47d1Yfdfc2vLN/vwkCC/UweaQShIefPXrWHD564+xpFqHQaKziV1fa4wxpOXHD3wyON8D7Iq1hg1O9vSDwOAOaarA0NXcfQqSmNMlRbNla6xh8Og7BUodHzotcO15+y4bcjbp7292l7lxuVHNh70sq373UjCQmHhraxfnWZCwrVwX0N1nD8PNc8AMxZWRka+mZfU1lvXZ0vXONWaTSwf88JGxx8PW6kMbpPP7nRyPbi2sjQ0MjgxNGzdrrxkht1iLalkYNo29qmaL3wSCP8XNqOng8A5qqsDI3bLfft+9NN8alRathq9M86nrtrDxvWlNn2klp3bUPT2k9duygurLErl2+OCw3R41Ys2ZIIijstD9y1Cl0L2Vm2z2prDrv5urahax0Krf5YEIWfa01+qXscAMxVWRkaAIBPI+3QmL9oKaEBADkq7dBYsGQFoQEAOSrt0OD0FADkLkIDAOCN0AAAeCM0AADesjY0jpztsW833re/XXmXoiiKSlHqleqZmZCVoaGDL657aj29I/E5AIDJqFeqZ2YiOLIyNJSaBAYA+FPPVO+crqwMDQ23AADpyUTvJDQAIEcQGgAAb4QGAMAboQEA8EZoAAC8ERoAAG+ERo7S6/zixUv3vxXOVtrH9icd7hbA7EBoeNBz7645YIsXrrFFC1bb+rUl1nrvYXxp+nTMr1+/+egN++CB41awstBWrdxsC+avsvwVm9y05nd2PreS4kp3bB+L/i/14qKdieddsWxD7LUrtrt37nsdu973utpD7hbA7EBoTKEn9m187eqtdrvlXqLRDQ29tqOHGz+4mfX19ruGPVPNUM+j59PzzqSo530bm7e37rAdOdQwZXDo8YQGMH0ve17F702UalkUQiMFNbVd1fvthxu343Mmamw4Zy23xralb9fVVfusv3/Q7fP2bTX27R9W2qLvVlvtroP26lWfbd643b6ct9B9A9e3fml7/NRWr9pi3+Xlu1tNB86fa7LTjedj62922yotqbKe2BtdubPOrf/dt/l2o7klvvZEUc1b+6fGLdrnQwdP2KH6k7bwuwJb8O0qazh51p0a0r58+80KW1NQFNv3Xre+3ImNFrQ/en6NHnSqK1nU84re49KSart//5Gb7usbsJKtlW5bS2KjuevXbrnXXo8PQkPTTZeb3Wum9VYu32htbU/dY6sq9rjXOqCgP7j/mPtsAbmuvGy35cX+DNfH/own0xmT3/zqq8hlkyE0UtBzqun1xxrTZNRor1+7GZ8a3yiPHmm0K03N8SXmjkm0TOtoXXne9cKKCsvdCEZ0u3VLuT192umm1dz1xuu1EYXIH75ebg8ftLnpocHXVrR5h/XGAilKeJ8Cur8n1pBFy3XKLdhXPY+eX2EQNOO7dx9YRXmda97ar61bdiaWqUlr+8F0IOp5A3ouvT7DwyO2rbgqcSx67urKvS5Q9PhwaOh1CoKgq6s7FsjV7jVVQISD/diRUymDHsglGkkoGJLD4cL5K4n56Zxu/yShkbdgSdaERtn2XTYwMPnzpQqNa1dvulGFRiK6hhFIDg2NVhQEYUFTFTXB8Gjm8aN21zCDEBGNOjQ/SnifAsmhoVAKH6eOK7xP4X3W/p45dcHNC0ojpuTnj3regF4zPUdHR5d7jXtD29Ko6eSJ793jw6endLwKrKbL192+7Yg9Tss0T6MNLVfA61iCxwCYGBwfGhjySUJj0bKVWREa+narb9f6lj2Z5NDQfurib9Ao1cSuXrnhGmPhpjJ3LFqWHBrhEYmEQ0PLww1Z9xUSYdMNjeRrB8nHFd5n7de57y+7eeHSexYW9byi11WjCQXhk7YO99okb0shG94vlUZjly5ec8s16tCpQ83X9vRDBY1OtFwFYDwFh05TBWGh+x/yg55PEhrZdCFc1xbWrd467py9Tqncud3q9lXfinVhV41LFDAL5xe4xqb91/FJEEBqkmqIlTvHzsMnn+7R9jWSCEJgtoWG9nfnjlq3n6JjixqNRT2vXg+NUrS/ev20DY0MnsVGHAG9PloW3i9tQ+ESPKdCQ+Ec7LMCQ9vR6CPV6UQglwXB8aGBIYSGB/08tSC/0P3kdsO6EnexWN9m1Sy1vwqAZYvXuVNROk2i6wtqct+fuegugGtawaMmrfX1OJ1y0s9Q1VR1DUPho+1rXd0GF4NltoWGaH8VjjrmFUs3uH0M9jegdXUh/fd/v8S++XqZK712J46fSTR/0QV2XWjXurrVRfLggxTsl1437ZPW0Q8BFLIKrmB/tHxL7LU7Gds2gMml+2upZIQG5gR9bnTK60V3Zv47SgDRCA1kNV0Xqana537a7PN3PwBMD6GBrKaQGBwcGvfrNAAfD6EBAPBGaAAAvBEaAABvhAYAwBuhAQDwRmgAALzlbGh8u/G+9fSO/7eSAACTU89U75yurAyNI2d7rLjuKcEBAB7UK9Uz1TunKytDQ3TwSk0NtyiKoqjJS70yE4EhWRsaAICZR2gAALwRGgAAb4QGAMAboQEA8JZ2aHwzfxGhAQA5Ku3QWLx8FaEBADkq7dDg9BQA5C5CAwDgjdAAAHgjNAAA3ggNAIA3QgMA4I3QAAB4IzQAAN4IDQCAN0IDAOCN0AAAeCM0AADeCA0AgDdCAwDgjdAAAHjL2tDQdp+2d9ndO4/sTstDKkXpNdJrpdfMV0dHhzU3N1tTUxM1C0rvhd4TX7x/s6vSff9ms6wMDW1TjbD3Vb/bB6Sm10ivlV4zn+DQh7u1tdW9f5gd9F7oPfFpPLx/s086799sl5WhoW/NaoJIj14zvXZT0bciGs7so/dE781UeP9mJ9/3b7bLytDQN2Y9N9Kj10yv3VQ0nMbs5PPe8P7NXnPhvUk7NL7OW/DJQ0Pn6fFhfF47ms7sRWhkt5wMjaUrCwiNLEZoZDdCI7vlZGjMhtNThMaHIzSyG6GR3QgNQiPrEBrZjdDIboQGoZF1CI3sRmhkN0KD0Mg6hEZ2IzSyG6GRZaHR2fncNq0vtcUL19i61VvddK6ZTaHR+6rPFfzNltDQn/X2Jx3uFv4IjSwKjf7+QSvcVGbPu1646Z4XL23j+m3uNpd8jNDQ+1tdudeWxMJ46eJ1Lph9Avn6tZuuPtT79+/t9es37nOYKz5GaLx82WvFRRXuvdN7WLZ9l/X1DcSXRtOf67raQ+72Q6lPTOfx2YjQiFW2hMb5c0128viZ+NQozWtsOBefyg2ZDg017t01B+x2y734nNEQGRiY+n2ebmjos1VSXGl9vbnzrwNkOjSGh0ds+7Zqe9Yx9i8F6L3Te5iKXvvphobe+0P1J+NTuYHQyKLQOHzopLXcuhufGvX4UbtV7qyLT+WGTIeG3uuy0hrr7u6Jzxnvbez9r6neb9/l5duiBatdcOtzI+HQSLWeGtv+vUdt4XcFtuDbVVZTtc8GYiPHivI6+3LeQluxbINVVexxn7lP6WXPq/i9iVItS0emQ0MBoeDViC2KRhwlWyvd+6JRyPVrt9wXheTQmGw9aXv81Fav2uKWrVy+0e7cuW+t9x7agvmr7Juvl1nBykI3/anNlvdvtsuZ0Ni35wihEZPp0JArTc22cH6BG7X1xr71B80iGIU0XR7993Y0feRQg126eM1NB6GRaj3d3xULkwvnr7j7qruxpqOQ0mdrtow0yst2W943K6z+4In4nDFqiL/51VeRy9KV6dDQ63n0cKMtW7LeLl+6boODY38+Fdbbiqvs4YM2N60/3zoNef/+6D98GYRGqvWePu10p4WHhl67ZbpVoGid2TTSmE3v32yXM6GhhqbTUWHXrt50zSmXfIzQEL3nCmX94Vu6aK21tT1132LVTLo6u11jVz1+3O4CQoLQSLVeqm/Csyk09E1UjSW5uSjsgvmZ+Dad6dAI6M+o3ouizTusIL/QXr3qtY6OLnd9Q18EgvflRnOLnTzx/bjQSLVe1J+7wGwKjdn0/s12ORMaL2LfTLduKU9849E+bd2y030TyiUfKzTCurq6rbhoZ2w08NLd6scHQTNR6dusvuEGodHfNzDpen19/S4Y9H4lm02hIcmNJ9MNRz5WaITdbml1I/AnbR2jF8VD74lKAR4OjVTrHT3S6EaiUWZTaMhsef9mu5wJDdG51BVLN7if2+p0ir4N5ZpMh4be80cP29xnIaDQ0MVVnbZQY0m+SK75EoSGAmSy9bQsfOpKFC4Kfz13VcVe9604oM+eSo/TNnQbzJsJajw6zRE0G93PVMORTIeG/nzqp7N6nQIKDb3mev01cgxfJFcQ6HUPh0aq9fSlTF/O9F6I1tfIRM937+4DFyqBqPcsPG8mzIb3b7bLqdBA5kNDnwF9I9PFT53a2Lxxu60pKEr85FbvvUYDCmstU2AHTT4IDUm1XrBMF1NV4ZGHvsXqMXpuhYmakC6Ua/Sii67aj2DeTAkaT6YbjmQ6NNTwdYpW759eV713+vlt8JNbvQeap9ddt6Ul1e61D4dGqvVEX870d6P0Huk2+LKm5bresWHdNjfiiHrPwvNmyqd+/2Y7QiPHZDo0EE2N52PIdGgg2qd8/2Y7QiPHEBrZjdDIboQGoZF1CI3sRmhkN0KD0Mg6hEZ2IzSyG6HxiUKD/yP8w+g14/8Iz26ERnYjNGL1KULjaXuX9b7KnX9vKFP0mum1m0pzc7N77zC76D3RezMV3r/Zyff9m+3SDo2v8xZ88tDQNvWNWU1Q+4DU9BrptdJrptduKh0dHdba2krjmUX0Xug90XszFd6/2Sed92+2Szs0luWv/uShIdquvjWrEeo8PTV56TXSa+UTGAF9uPWtSMNp6tOX3ot0Gg7v3+yqdN+/2Szt0JgNp6cAAJ8GoQEA8EZoAAC8ERoAAG+EBgDAG6EBAPBGaAAAvBEaAABvhAYAwBuhAQDwRmgAALwRGgAAb4QGAMAboQEA8EZoAAC8ERoAAG+EBgDAW9aGxo37I/bv5vfaP/jTLvvP/riTojJa+lzp86XP2cd2a6jdfnWnyP7o4u/sH57/G4rKaOlzpc+XPmeZkHZoLF1Z8MlDQ3+Q9Ye6eH9se2/ex+cCmaPPlT5f+px9zODQH+Q/uvi3Vt51xoZ+4v/0Rubpc6XPlz5nmQiOtEPjm/mLPnlo6Bug/kADH5s+Z/q8fSz6Bqg/0MDHps+ZPm/TlXZoLMtf/clDQ9/+GGFgJuhzps/bx6JTB4wwMBP0OdPnbbrSDo3ZcE1D55yBmfIxP2865wzMlEx83ggNYAqEBuYKQgOYAYQG5gpCA5gBhAbmCkIDmAGEBuYKQgOYAYQG5gpCAzOub+hnO3cj9t4O585PngkNzBWERg65//Sd/XJxr/3Xf/7cle5r3ky7+fCd/csveqy79+f4nLmP0Jh5TQMP7E9vLHd/r0D1J81L7Uzv7fjSaD/be3vwpsv63vEXfydDaOQI/TMW/9MvX1jhntc28Pq9vf7xve059aP9bk2/vXk7s9/4CY3MIjQmevr2pf3v176z+Y9q7PVPb11VdH1vZ/vuxNeI9ny4z/7FtYVW2HEsPgfJCI0coNNAny/qtX1nfozPGW/k3Xvbsve1/eP/q9u9Lv/k/+m209eG3TI19v/z969sVeWg/cM/e27/xb/utC9iQaPgkfexm0Pn37rH/Of/stP+xX/osR8ejP47S5daRuyf/6ZnwnxCI7MIjYlahtrtf73yje170RSfM54C5H9u+r39V+f/g/0v8fWCwNDrqfonl//ebQfjERo54EHHT/Ynf/vSul5GN2k1/ubWkcSI4+jFt/avY+v3DvzsGvs//X9fuNBQ+Oh6xL/Ne+VCRk42vbU//m2PPYw9h7Zz4eawVZ94EwuId+457zwePf117e6I/avf9djT7p8IjQwjNCb68edh+79bNtg/vvR39td3ttj+WChotCGHeq7a/3Y1zw6/vO6md3dfsH925Q92uf8+Iw0PhEYOUONWk54sNESBcfbGsB258NY1/T/5Ty9dU1fpsWr0AQXGf1rX7+7//cZ+qzr+xt0PKznw2o1utD3V4Vj9m79/aSevvCU0MozQiKbrE7qG8eu7RfZPm762//7i39rWZyftqwc77V81L7G17YdcrWmvt39+bb4LCkJjaoRGDtCpJJ1iOnYp+h+10/I//8MrW7lzMO3Q0G1UaGidcGgE9fzVz4RGhhEaU1OALHpUa398fZH9zb2ScaER1A9DTwgND4RGjtApJ10IP3N92H5+P3ZKav3uIbvbNv70lS6aB019qtBQEOl6xZOun9y0rlvouXR6So8LTk/pX3q9fHvEPS+hkVmExkR3Xz+zBY9227O3r9y0QuNvW7fb//FDvtV1X3Sno4LTU1qnsuusW6dnZMAFy/r2w2565P3o5xpjCI0cEVxv0IVpHbvqn/31C3fBeyTW1/MrBu2/+7fPXbBoVOIbGtpuxdE39t/8+XP7o1+MPl7Po/kNV97a//CX3W7Zf/lvumxj7ZB7LkIjswiNibpH+hP/k+E/ujQvdvu37tdUzYNtLgy2dBxPzP9vL/zWvmgtTVzzUGBo/v94+Uuren7WzcMYQgOYAYQG5gpCA5gBhAbmCkIDmAGEBuaKTxIai5fnExrIKYQG5opPEhp/+G4xoYGcQmhgrvgkobEsfzWhgZxCaGCu+CShwTUN5BpCA3MFoQHMAEIDc0XOhsY/+NMu97eUgY9NnzN93j4W/QW2ofhfTAM+Jn3O9HmbroyGhqsZCI1/N7/XivfzH63g49PnTJ+3j0V/87m860x8Cvh49DnT5226fEIjyIPJQyNWMxka+veV9O1Pf6AZceBj0OdKny99zvR5+1huDbW7f/ZCf6AZceBj0OdKny99zvR5m660QiOWDR8UGi44fvwxY6Eh+oOsb4D6Q61zzhSVydLnSp+vjxkYAf1BDv6tJZ1zpqhMlj5X+nxlIjAkCA319KC/ZzQ03r4d/iihAQCYecmhoR7/0UIjOEUFAMhO6uHu1FQ6ofH+/Xuv0BgNDkIDAOaKqNAI+j2hAQAYJwOhMbogOTSC4CA0AGDumCw0gr5PaAAAEjIWGom/4KcHxIOD0ACAuSVVaAT93wWGy4eI0BgNjlShMfEv+AEAslMiNCb7i33phkbUvz+VPNoAAGSn5FFGcmiE/92pDwqN0eAgNABgLkgOjaDPpx8asdKKruKhMTbaIDQAYC6ICo2g36v3BzkQ5EIiNMLBEVwMD4dGeLQRXNcIggMAkJ2CwBgNjejrGWOh8ZN9tnDpygmhkRhtxG6jQiN5tAEAyE7Jo4yo0AhOTSkbPvt24dIpQyN8XWNstDEaGio9FgCQXdS7gz4edWoq+XqGC41l+RNPTyVCI1ZupBEPjSA4gjQKgmMkNh8AkF3Uu8OBEYRG0O+D/h/kgQuN8DWNyOCI3Y4+KPVoQ+sAALKDenbQv31HGX6hESs90FU8fYLQSA4OpZYep+0AAGaXoMcHI4xwYAShEfT5oO8HORDkwhShEX9A7P7og6NGG6NPqifX3yjURRX9hEulv2mocv/Jx1DsdnAoUQMDg5HV3z9AURRFpaio3qkK91jXc+P/wVLwt76Dn9eO/e3v0R4eBEYQGsmjDE1PGhoTg2MsNFzFU2iy4HDhEREc4fBIDpBwRb0QFEVR1FhF9U5Vor+GwkIVDoygT08WGK6SQiOcCX6hMcVoY7LgSBUeQQUHmTjYiBeCoiiKGqsJfTPcU0O9NhwWkwVGcmhMHGWkGRqq4IGJ9PEMjqjwSA6Q5AofPEVRFDWxonpnUOFemxwWKp/AGO3zEwNDFRkaycGhDbkNxO4HG3RDmFBwjA+P0QrvaLDzyQGSXFEvAkVRFDVWUb0zqHCvDffgoC8nh4Uq6OeJwHB9f7T3h7NA2TBpaKjCKwep4x8cYzsZ3nFVcME8VUW9GBRFUblcUb1yXMUvcIcr6MNRowvV5IEx1v9VQS6kDA1V+EFRwRGcqposPJIDJCpEosoFC0VRFJWoqF6ZXOFeGw4KVbhHB3173CmpUJ8P9/5wJrjQCH6/G1XhB6qmCo5U4aEaDZDkAxtfUS8ERVEUlbp3Bv01ue+Ge3K4V/sEhiqcCYnQkPCCcCVvICo4pgoPVfKBRNVYqFAURVFRFdU7kyu5/4Z7czgsXO8O9fXkfp+cB16hoUreUCI4PMJDlXwAyRV10BRFUdTkFdVLw5Xch1OFhSq5z0dlwbjQkKiVgkreoHYgHBw+4RGuqIOkKIqi0q+oHhtUZFi4Hh7U+F9JqaIyQDUhNCRqxaCSN6wae+J4xeaFdzCxo/GKOiiKoihq+pXosxE1PihGK6qnR/X+oCJDQ6JWDlfUE43ubGiHNC9WUTufqoKDpiiKosZXVM9MVUEfHtebY/OjenhUrw+XfHBoqKKeNKjxOxgvzQ9V1AFSFEVR6Vdyf43qwVG9OqioHp9cMmloBKIemFxROxCu0YSceABpl7ZFURSVCxXVA9Ou6BFFuKJ6enKFTRkaErWRqIraoVQVDLfGV/JBUxRFUeNrYu+M6rGpKqqHR1Wyz75bvDx+N7WojaWqqJ2kKIqiPl1F9epUFeWz+YuWxe/6idqwT0UdAEVRFPXxKqoX+1QqXqenkkU9SaYr6gWgKIrK5YrqlZmuqXxQaIRFPSlFURSVPZWOaYdGIGpHKIqiqNlbHyJjoRGI2jGKoihq9tR0ZDw0kkXtMEVRFDVzlUkfPTQAAHMHoQEA8EZoAAC8ERoAAG+EBgDAG6EBAPBGaAAAvBEaAABvhAYAwBuhAQDwRmgAALwRGgAAb4QGAMAboQEA8PbZ/EVL43cBAEjtswVLlsfvAgCQGqenAADeCA0AgDdCAwDgjdAAAHgy+/8B5PiMo4/42KIAAAAASUVORK5CYII=;" vertex="1" parent="1">
          <mxGeometry x="-380" y="120" width="397" height="637" as="geometry" />
        </mxCell>
        <mxCell id="ckLJkR33WfwNbVA9dTh0-4" value="" style="shape=image;verticalLabelPosition=bottom;labelBackgroundColor=default;verticalAlign=top;aspect=fixed;imageAspect=0;image=data:image/png,iVBORw0KGgoAAAANSUhEUgAAAYsAAAKzCAYAAADvISHWAAAAAXNSR0IArs4c6QAAAARnQU1BAACxjwv8YQUAAAAJcEhZcwAADsMAAA7DAcdvqGQAAFkqSURBVHhe7b3nc11HnqZZ/8VGbMyH+bIREzu7O727MRMTayc2ZjZ6enumYyJ2Zquru9RVXV6lkqokSiyJEkWKRvTee++9Eb0RvQNB0IAgQQIEARDeEAApGom558178yJxcO5NkDDEBZ4n4o17j8vMk+ec35sGuOdHL168MM+ePUMIIYSy6kdJKxFCCCFfmAVCCKGgMAuEEEJBYRYIIYSCwiwQQggFhVkghBAKCrNACCEUFGaBEEIoKMwCIYRQUJgFQgihoDALhBBCQWEWCCGEguqlWXSYqsIiU96ctP6iuVsXX99XajR3L1w0lxN119QnHoMQQsNDhVdvdF9X2H3d66iXZlFpDoz6yPxi9EFT9bT7+pUF/rq+VJk5tWyNWWk124z88SgzZr5bPmnKE4/pgR6dNLOmn8RsEEJ5KxnF+78f1cUwZBTxda+rPjGLd378kXlvWZFpj63vYhZPo97GLbX8i015a0dqXXulKY73BOrumsu3azqXIzWXF5lrFeljuqnArPzxJHOgKrY+KT/1eKJ1XdJqLjPXon2qqqJ8D60wH36wwhxVD+VuY+c+CCGUR/INoy+MQuoTs1iy+6AZ89NRkTm0dlmfMYuKqMX+7kjz+Sy1/JeYz3820kz8pjLa1miOjhtl1l536T0z5TvHm3d+usScb3XrtM94s7e8c5+uSjCLrPlp214z5t0V5podOms0pyaONGP2RdvunTQr5083v/3VdLNEPZTjZZ3pIYRQnskZRl8YhdQnZiFTaC5YYd776XRzoKLrehuQp34UBWuvt9B8xsz72QJzquGZaT+9xPxiSUFq/dMiszYK1lMnfmTmnU63/st3mpEjduYYWoqbRe78tFy1b7r5xei95vLu6ebDKO9mt19VZHqjDpoqt4wQQnkq16MYdGahZRuEbavdX69g7s8ppFr7Y36V3t56MQrk6Z7E9Y3mvTkXTXP0+dtxR+3wlHoaE4/kGhKKm0UgP7tPq7k8Z6R551crzGV/ch6zQAgNAflDT66H0VvD6FOzUBC+tmRU1GpfYZZ84tYXR72FUWZtYaNpbuiq9vSk+LUl6kk0mvNRAE8dU2b2jphujtbp2NmZHkGy4mYRzu9Z80Wz5N0x5sN3/aGzSJgFQijPlWQOg2aCu9MsIj2N1o1OTXq79eVbxkcGstPcdUG/7qI5cDw9hyCpJzFqUtT632iK0wFdPYqRo6fbnkbnxHmS4mYRyM+Wb6QZozmMisgcfuaGziLJLH4a9TZUhi5/3YUQQvmjJFOQYcTXvY763iykupNm6k+99U8bzbUNk8xvo3UykXd+NsbMO+JPIN81Oz74yIzc6a2rO2omRvvOO5vtr6CcuptF9vxSPZ/3vHmKZs2ZjN5ryq05VJpT08eYX9hjItNo99JECKFhrF6aBUIIoeEgzAIhhFBQmAVCCKGgMAuEEEJBYRYIIYSCwiwQQggFhVkghBAKCrNACCEUFGaBEEIoKMwCIYRQUJgFQgihoDALhBBCQWEWCCGEgsIsEEIIBfWjV69embh++OGHjL7/Pq3o+8vvv0/p5UurFy9eWH0frdNxAAAwOFGMVqx2cdvFcRfXFeNdvPc9wPlCN7Pwd1LCIaPQfgAAkB8oZocN4/suXtDNLPyNknOZTEL69IxC3wEAIL+Ix3Eb2zNxPhX3436Q1SzcAa5XETeK58+f22MAACC/UOxWDE8yjGzDUbnNIvp0bqPE4mYBAAD5SdwsrGKG4XtCxiz8lXKYUK9Cs+MAAJCfKIaHexedcxdZzCIl5zLOdZxRpMyCngUAQL6iGO7iuTMLK2cYaR8Im0X0mTogqVfx3Hz3HT0LAIB8RTHcGYaL74r18d5FF7PoZhSRnLs4t3FGgVkAAOQ/vlk4w3Dx3sV/5wfZzSL6TO2YvVeBWQAA5C8ujve0d5HTLJzLOKPwzeLpd9+lswQAgHxDMdw3C2cYLu7nNAu5iTZYo0gwC82eOzfCLAAA8hdnFinD6PzLKN8srGGoAxF9/sgZRcosUvLNQgd3mkVnr+LJ06fpLAEAIN9QDI/3Lly8724WUc+im1lEn6kdOs1CiWAWAABDhySzcIah2B+ft+ixWaibglkAAAwN4mYRH4rqsVnYbkjMLKxRPE0ZRceTJ+ksAQAg31AMt4YRxfSUYSTPW3QzC7lIbrPo2qvALAAA8peMWcSGonpsFtYo0mahgzALAIChRy6zyBhG2g+GhVm0tXWYKRMWm53bDtmfNQEAgF6ZRUpxs9DB/WUWGiubNG6h2bR+b7dAXnb/ofntP35u9u0+nl7TSfHNUvPJnyaZ+rqm9JrsJJmF8pUAAIYr2czCGcagMgshMxj96UzT9rg9vSaF1r/z44+smfiBXQFf5rJ4wUZb3jdh1bJtVgAAw5V+MYukP5vtK7NQD+IPvxljewuOp0++MxPGzjerlm83Iz6YaPdxyFRkLpcuFNnljo6n5sTR82bpok3WQPT9u6edv1v18sVLc+TgGXPrxl1rOju3HzafjphqtW71LrtN+wAADCeSzKLbX0T11iyUSXtHRzrL3qF0p09e1mUo6l5phRn54WTzoLzKbvOHoq5fu20NpKGh2Tx58tSayrgv55rDB0/boaY//HaMmTlleaY34tI/fOA0ZgEAkEYxXLG8z81CifWHWQgFcn8oaveOI2berDU2iGubG4qSmayOehv+EFRH+5Mu8x337j6wPZWS4vt22TcLB8NQADDciZtFyjD6yCwUsN0QVF+aRcWDavPBu1/ZoSgF/zGjZmWGmbTNDUW1trRFPYIpmW1CRlFb02CuFtyyOnPqinn/d2PN9aISux2zAADojjMLOxQVxfbXM4vo822YhT8Udbv4nh2C0jCTeBH1LubMWGWHovwhKKHj5s5cbT58b7wN/hpWWrFkq/0rKswCACA7r2UWkTckmkXS70L1p1kINxS1aN76bn/pdPL4RTP+y3l2aMrfpqEm9SLU+3C0tDy2f1aLWQAAZKcnZuH/PtSgMQsF/N//arT9c1l/mEk8qq6zphDf5oavLp6/Zoejnj97YTZv2Gf3y2UWmhP57OOppuZRvXn8uN32XgAAhhN5axYuqKtX0NjQkl6bwg1FjXi/cwhKyCBOnbhk3v3lF9YgfvkPn5r1a3bbYalcZqHex+QJi+wxv4uO9f9sFwBgOJC3ZgEAAAMHZgEAAEEwCwAACIJZAABAEMwCAACCYBYAABAEswAAgCCYBQAABMEsAAAgCGYBAABBMAsAAAiCWQAAQBDMAgAAggw5s3j+/IWpfNj5vorBgOpHZdLnQDAY66A/Ub02NDR1eV1uNlqaW63eBN33D8orrfQd3h6vc82hb8hLs1C627fuM19PmGMmjp9t5s9daUrvltltrS2Pza4dB+z3wYLqYmdUJn0OBG+jDnTtB+r84tTU1JmVKzbZ+0L35pMnT7MGkWuFN63ehP17j5i9uw+bK5eLbF6QjO4D3Q99STxN/5rDwJB3ZtEYtSbmzl5ubhffzQSEjo4n5vDBkzZPzOLtmIUC8IFvjqeX3h46dwWRbHX9pmahe3vDuh02fciN7oM3NeRs9Eea8HrklVnIHLZt2WtuXL+dXtMdPczaZ/fOg2bCV7PM2NHTzInjZ7sYy4b1O8y4MTPM5IlzzamT5zNDChq+UctxwrhZVvqudeJ6UbHdX8fNmLbIlN2vsOtbW9vMyuWb7PpJUU/nWuGtbq1aaxbbvzGHDpywaYz+fIpdVr0J7a/0p01ZYNNZunid7WKrrHt2H8qUQftvXL/T3Llz3y4LmeaZ05fSSyl8s8iWttCLng4eOG4OHcxerksXC+156Vid57kzl03xrTt2u0O9uvFfzbTHz5q+JNPLq3hQZWbPXGqP1aeW41y+VGjPwaF6Xb92u72XhM5d17KurtGWzV2D1Su3ZFqVenuh6ra9vcMsXrjGfDpygr1G+/cdtdt9FHBOnjiXuWaTv55n68dds6TrqftZ9a50VY+bN+6ydZerXpW3rt2cWcts+Z5F98DW6L7UvuoNHz96OnPfOW7dvGMOHzqZXkpxteC6Kbp2K+e9qfPxr4ny37J5j81XnD93xRw9cspMm7wg2q+zroX2UVmzPS/Zyt3U1GLXu2tQXvbQ7NtzxJw9c8neB7ofFsxbaWoe1dntDqWX7TrG71XVnXoQF84XdEvTXXNHrntN569nZNaMJfb8lG5zc9cXpkGYvDILpadW4+Pogc6GAqUCwL3ScrussumGvHev3H5fu3prJpjpPA7sP2YfNt2oegB1Y+q7pECp4a7W1lRr1d3Urg70sK5asTljHEp/y6bdNi8f1cW8OSvMpQtXM2nr4bwYLQsFf7Va3cNfV9tglixaax8IBXOXXnV1rVk4f5U91qXzTfSgN9Q32u0O3yxypR0ql4KXjNUdq0A6Y9rixBae1qn151A+y5ast4Yn9Ll86XpTVVVjlx0qu4KO6k4owCogVFU+ssv6VKBTkPEfcD38um7CP199D/Uspkyan0lL6a5YtsHOQ+S6nkpP6Sp98br1qvtIw1dCywp0ur98dH+tXrk5c38rHRlna0tb1ntT31Xv/jWJl1V5rVm1JVNWH+2T7XkJlVvrN23YaWpr66M63Gg62lPXOl4en1zXUffb2jXbMuWU+bqGRDxN/5qH7rX4+evarVm1NXPPQc/IO7PQzdTWlj0t3UR6iF3LVLgbTcFWD59/k+jG1QPa2NhsHzCNdzuUn9bV16UCgYKWHgx3vNJTefTaVeUrqWV0/NgZu93hHnq/3CqPC656IO96vQXxTWRiSksPrQxD6KFSr2rHtv12kjYeaB3+g5Qr7VC5FCjLy1KB06FWWlIg8I8TKqv29Sm4UtSt5ayy6xx0LgqSahHfLi61LVjhm6XKW3K7NApS12xex9L7+Oer7yGzcMHJoVb5kUPf5ryeSs8PwKF6VcB1QV/1KxOqranPpPvgQaVNI47K5oKxrrXKpeOz3ZvKw93fjnhZFSxVriS0T7bnJVRumceRw9/aFr8zWBEvT5xs1zGpTh3xNFUWd81D95rq0O956dhc9wgkk1dmoZszPgwTx7+JHO5GUzDQEILScfhmoUChMjv8B1LnqK72iWNnbXde6T2sqLbHuAfJyX+oheoiPmeh41UuoW3xoOwCj1pDmzfutia1acMuWyYFE6ekITm/DnKlHSpX0sOrIO4/tA7/OKEHWA+sT5JZCJ3D6VMXM+ekc9S5ykBkjKoDDSssmLfK1rnO7+aNEnsthH+++p4rEKic2cwi1/VUen4Afp161f2j3otawH66Gjbz70WhfXU/apszUQXtXPem6t2/Jtqm/FxZdb7qOSWhfbI9L6FyO7OYPnVhj80i13VMapw44mn65Q7da/Hz17GYxeuTV2YhdLPNm708Mz4sFEzUUlE5/JvI4W407ecPM+hmVzdYLS99V3B0XW6hLrDMxZ2XQze0bmylp5b5o8iEHAosKodPPHgIlUflEup+qzvvjmtra7fd6KbIwIQCqcp2+tsLdlkPsfJdFwUQv1fg8OsgV9qhcqme3NCK0J/jTp+yMDEQyFR8I9AQwPKlGzIBTnWloYCkoKVz2LB+hzVFnZvQA66617kL5el6G0ItSV034Z+v6t+ZahJKR0NpbrvqRXWpesp1PVVHvlm8Tr3q3tKyPzej/JVfEu6vrjS274JytntT+cug3NCkUGNK8w+urG9qFqFyqzwql57FRQtWZ4aXdG3iwduR6zrG61TDSTIqEU/TL3foXsMs+oa8MwuhSS9NVulPZzW+rQk/tUh1c+e6+YVuaE1wLZq/2vYQdkQPpLv5VV7dRJogk+w4bHTDKlgqHwVKu33GUlNRkZpAc+lpf336E3aOePAQKo/KJVRuTSpq7FgTtCqX38JS61Lb1DNyKJDs2XUovdQVvw5ypR0ql6iOHkSd+7ixM+x8gia4XV366JxlLGo1uuMVxHSNli1eZz+TJv8dOhcFeUd9dM4qq85dKBir/EpLkukn9SyUvnoJmmjXtXLj2A53fvPnrrD3gIKqP6Gb7XqqjnyzeN16dfeW9tP+avC44BpHAVL15eZtRLZ7U+j5U91NSZdFJqI6cmV9U7MQ2cqtnq7f21HDQsahZ0l/saj6V/3qDxh8cl3HpDp1z1k8zXi5c91rmEXfkJdmAQND6jp39pL08OkvzbKNK0PfILPQ3I1f9wBvG8wCsqJehXpTav1pkletPc0ZEcT6Hj1TGn7ShL56NP4cAMBgALOAIBq3V9ddn9B/6DnSnI2eI4DBBmYBAABBMAsAAAiCWQAAQBDMAgAAgmAWAAAQBLMAAIAgmAUAAATBLAAAIAhmAQAAQTALAAAIglkAAEAQzAIAAIJgFgAAECSvzKKkuAwhhNAbqLfQswAAgCCYBQAABMEsAAAgCGYBAABBMAsAAAiCWQAAQBDMAgAAgmAWAAAQBLMAAIAgmAUAAATBLAAAIAhmAQAAQTALAAAIkpdm0dHx1FwvKjFXC26Z27fu2Xz6Ap3T3TvlprWlLb1mcHPq5CUrAID+Ju/MQibxh9+MMQvmrDXrVu+yn+O/nGdaW8MBvrqq1h7z/NmL9JquPHv23EyfvMzm0VO2bT5gSorvp5cGlsMHTlsBAPQ3eWUWL1+8NPNmrTEnj19Mr0nx8uX35tWrV+klY5qbWk1R4W1T8aDalk2ot6DAKmO5eP6aKS+rsut94mbxIspPPY3vnj6zaSlNpS1cL2Ta10vNzm2HzPVrt82TJ0/tNpWlrrbR9nxqaxq6lE3LktK5d/dBZGB1puzewy77KN/bxfdsejpn5ZOUFmYBAANFXpmF8ly8YKPZsnG/DahxVI7tWw6aT0dMMWtW7jBTJi4xY7+YY5qiwFz5sMYsnLvOfPzHr83q5dvNudMF6aM6iZuFeivjRs81X/x5hl2vXsy7v/zCFEaBW0H8yMEzUV5TzaxpK2yZmhpb7Dkvico4ZtRs24vR55wZq+16oeA+9vPZ5k/vjTObN+wzFeXVZtyXc01jQ4vdLopvlto0ZQ6fj5xu8121bJv58L3xZsPaPbYeBGYBAANFXpmFUNAf/elM89t/HBUF4VXm6pWbmWEltcBlDm5ISq3wPTuP2qEiod7BgjnrrCkkkWQWMh71RBznzxbafVwaCuL+sJVMSOVy21U3SxdtypiTgvuEsfNNe/sTu6x6XL54c6a3ZJeXbDFXLt2w5VevyfGous4aTUNDs13GLABgoMg7sxAKogrkCuITxy6w5qHegwKnWvpq0Tuphe6C+5uYxeQJizLBWSgN9TacIcXNQsvjx8zrUgYta71QGdWj8FFPQsNZqi+lP2n8ItP2uN2eZ+ndB2Zj1JtQOiuWbDUjPpho9xGYBQAMFHlpFj4ajlJL/tjhs+b0t5fN3Jmr7XyAgrlTR9SKV+B9E7PQsjMGETILGcGm9XszeTupLkRSgNc2mcWtyDR07L7dx+169ZQ0DFVeVmnTqKqsscNamAUADDR5ZRYyht07jtihKAV/oXF99SzUOm+obzKffTzVDvlou8p16UKR7XUIF+hlJtru0nC8qVkc+uZUJj1NWo/8cJItj5Y1RHYmMrFcZiE07KS5EQ2j6TyEyqGekTM3zZVorgOzAICBJq/MQsG34PJN89kn08w7P/7IShPOR6NehcogFEhlHtr2s598bFvsmngWCrqaH9B6DVe5v2xyvIlZ6K+W/vDbMTbNg998a8t4o+iOnYxWGX7+d5/YPN1fSmUL8Bp2UrnVs1AaQvW3bNFm+6fCmphXD0pmiFkAwECTV2YBAABvB8wCAACCYBYAABAEswAAgCCYBQAABMEsAAAgCGYBAABBMAsAAAiCWQAAQBDMAgAAgmAWAAAQBLMAAIAgmAUAAATBLAAAIAhmAQAAQTALAAAIglkAAEAQzAIAAIIMe7PQuTwor7TS97eF6rDyYbX9HI7ovBsamjKvlAWAwUXemUVl5SMzbcoCM2v6EjNz+mIzcfxsc+zo6SjfF+k9Xo/9e4+YvbsPmyuXi2x5BwrVlerIoe87dxzosm6woDKpvH2FDEHvJPfNuaamzqxcsWlArwEA9Jy8Mwv1ADZt2JleSvUMvj153mzbsve1W6Uq74Z1O0xry+P0moHjWuFNc+Cb4+mlwW0WKqfK21foHGUMb6PeAeDNyHuzEAo6Sxatta3VZ1G+WyPjGDdmhu11HI96HSqvOH/uijl65JSZNnmBKbpWbDau32k+HTnB9lQ2b9wVlfu5uV5UbJd1/NLF6+zQiNC2/fuOmj27D5k5s5aZx4/bTfGtO9aoFsxbacZ+Od3Mm73c1Nc3mn17jpgJ42aZsaOnmRPHz3YzsdK7ZWb8VzPN6M+n2B6Slq1ZbP/GHDpwwkyeONdu07LqViiNSxcL7TaVbdWKzaaj44nd5qNyqZy7dx40E77qXoZs9VN07VZmP0nfte7C+QJbFpVX51nzqM6m41B6Kqcr1+qVWzK9A6Xj16fq7eHDqm71rntG5da5OyoeVJnZM5fa4/SpZaHrcPDAcXPoYHI9AUD/MCTMQgF6xbKNUZ7Pzfat++yQklCwUgBSkBX6vmbVlqiMqSEVldFv4d65c9/2NNz2utoGa0IKZNp33pwV5tKFq5nAq9a21rngqOO/GDXZFFxJ5a96Wbt6qy1znKSehZ++pIB/MVoWt27eseftgmLZ/QqzYf2OzLJD5zL563nmXmm5XdZ2BfB798ptmtnqR/spfW2TZHjuPHP1LGQWzc0t6SVjzpy+ZE6eOGe/q8xr12zL1KeM93bx3W71LvR9V9SzEqr3ZUvWZ8xQn8uXrjdVVTXBegKA/iEvzWLNqq02uEgPK6rN4oVrbIBra+uwLe7amvrM9gcPKm2AFAqMauk64kFL+92NAr7PN/uP2WO0r4Lu49a29JZUwHeBUSgd18NxZAu0SWaxfu12ew4Of58dUetZ5XDn1RJJrXJXdoeWZXi6Fg5XhlD96Hqp/Avnr8oYoMh2Dg6VveR2aXQNrtl9NYckkupTxOtd6LszC9WpeoE+MuDDh04G6wkA+oe8NAsNP6jFKimwNDU2220K5CuWbbAtUxcMpfb2DtsC1b5+Kz8etDRnUF5WYb87fLOIzykoSPlBVOkoPX+fbIE2HuCype/22bJpt7l5o6TLeel8Vfc+Wu+CrsOVIVQ/ul5qwUs9NQsNDy2Yt8qattJSGU8cO2u3qczx+hQ6x5BZuN6ZwzeLXPUEAP1DXppFfBjKoYCnQKKhDofK4IZBQmYRH+ppa2u3gVNmlC1I+UFU6fTULNTiVvBzZEvfBUGVbc+uQ7buhcro92AcftB1uDLkqh+lp3NXPuqlbd64O1MPauXHg7dD6Wrew6F93dxDvD41nCSj0rLS94ev/HJruGn50g0Zw1L5NHyoaxeqJwDoH4aUWQjlqYCtSWwNT2nS2QWlkFkomGpiV2P+OlZpuJZxtiAlOV7HLFRODfmoVa59sqXvgqArmyatly1eZ6ZEZfSH1By5zEIk1k9Ti50DOHLoW5uPdOTwt+bypWv2e2NDk52IXzR/dbQuNf/jkKEqHZVJ0jCX61kk1WdFRWqiWuajZR3jejp+uXVuX0+YY7fr81rhLZteqJ4AoH/IO7MAAICBB7MAAIAgmAUAAATBLAAAIEjemYXSraqsNXdKyk1JcVleS+egc9E59ZTq6mpTVFRkrly5ggZQqnPVPcBwJa/MQmkqwLY0P7ZlyHd0DjoXnVNPDEPBqrS01NYvDCyqc9U9hgHDlbwyC7XCFVyHGjonnVsItW4xireH6l7XAGA4kldmoRa48h5q6Jx0biE0HAJvF64BDFfyyiw0zj9U6cm5EajePlwDGK5gFoMEzCI/4BrAcAWzGCRgFvkB1wCGK5jFIAGzyA/64hro+dFvlEn63p+0NLda5QP6fTDFDBicYBaDBMwiP+iLa+C/912/HBx/H/mboh9ajKelH1lM+iHLwYheYpXt143h7YNZDBIwi/ygt9dAz4j/3nc9J/4vH/eGpLTyySxgcDMszKKmps7+vLZ+6lo/ya3lwcZgMgu9P6LyIf98lkRProFa+Oo1zJi2yL5DfPrUhfan2fVs+O8fl2msX7ut2/vIW1vbzMrlm+yxk7yfZxf+e+SLb3W+lySetktLRnH82Bn7U/hKTz9t734mXuTKy0f56ifr9fzoffP6yXr3XnS9dli9gq2b99iXa+k96UnpKi7oPSb6yXuHYoSOVbxQHpWVj+x63YPqfeld9pK++++l0fvvHcpvS5S3yqGya7uOGTd2hn0Fr58fvDlD3ix0A+m9EXpngtCNo9eGDrYbqD/MQtfpwvkCM2XSfPvATp+y0AaxpGDgE3+3xJug66/7YajRU7PQ/ab6F7W19fblTaoP1Yvf+o8vKyDqnSB6x7rQs6U3Duod6iL+HnmfeFpCZjF7xtLM+8xVLj0PejZDefko37mRUeg4oedHBqQXgyk//73vudLVu9Ld+06Ehp0U3IV734zqT+age1ffJb0nXq/p1Xf//SzCP2+9sVGmqf2E8nbXAXrHkDcLtVb8N7kJrXM36GChP8zixvXbttXmHhZ9NtQ32u+50EPXW7OIP9ADhXvFbhK5tvWUnl4DPRN645/eS677bd2abfaZiAf0+HJ1da19XbDesa51kl4Epd6BiL9H3ieeltA18O91f59QXj56MZbfmhdKV+nrOL2fXi18kStdvdp39crNGbPasH5H5ro4s9D71VVG/02Q2l/rdHwus9CLztSbOHvmkmlqasEo+pAhbxYHDxzvdpPrhsz1tr23QX+YhR4+BaokXGtN7zPXUIFagq71qYfOmUWu/bRNQUDDHto2Z9YyO8SnFuHoz6eY8V/NjFqfK03No4EZ9lu/drsZM3qafW96nNK7Zeb9349K3PY69OQa6N5ftmS9rTfVpVrz27bstev9wOb29ZfVMlag1bIvFzhdQE0inpZQUM0WWEN5+YTMwm9c9OQc1JBRT0PPp8M3Cx2v+OHIZRbapuEv5SEUh0pul5pv9h01UyfPt+WB3jPkzULvrR6uZqGhAo1tb9qwy7ZydZ0c8fdja8hArTwt66FzD3+u/bRND7UbEmmI8nPv934bPQu1UGUIcVOQebn1Mo3e0JNroPrz60VmoWCmZyIe0FWP/vvIdYxM71HUOncoyLr6z2UW8bRELrMI5eWTGv7amtmmZ1vDWbqv/PtFhNJV71ZlUA+jKj1HIdy5qRGiIScNmTp0X2keRmmogaIesxtqunPnvn3dsMqh7YpFDg1z+e+6hzdnyJuFbsB467rw6k178w8m+sMshK6VhgXUytIEv8aL9ZDt2P6Nfej0gEkaMtDD6Jbdw59rPz3Qd6MHNYm3OQzlG0ZfGoXoyTXQ86Dznz1zqQ2Iy5dusJPZSWYh4u8jV7BXL03H61NDPHqWRC6zEPG0cpmFyJWXj/JVL0DzH/pjEQVn3RdCaflmIXKlq/tP8wq++Qj/3LSvyqnjpRXLNmZ6tDpGDSBN1uvd7rofdb4qR3VkXpqbU57Ll663PVvfPOHNGfJmoVaMbhp3o6lMenjVIhpM9JdZ+Og66aFVt1wTjjdvlNgHzEldfO3jP/y59tO28rLUJGact2UWQoah4ShnEvreF0YhensN8pWQScHQZ8ibhSgpuWdbW/qzP79FNJjoD7NQj8KZpNB1Wrt6q12vISQN0elaum1uTNk3i1z7xYeolJdas0K9Of8frLSPmwDVfZG6hzrX9TXOMPrSKARmAcOVYWEW+UC/mEXUe1J3XFKXXt12TbpqGEA6cfysNU914bUtaVgh135um/5sUsMBMmT3N/yaL9Hf4mvI4vKlQnvMogWrraHMn7vSTkC6dbp3+gP3VzZ9yXA1C5m6axTA8ASzGCT0h1lA38M1gOEKZjFIwCzyA64BDFcwi0ECZpEfcA1guIJZDBIwi/yAawDDlbwyC97BTaB62wz0NdAfG+g5Anjb5JVZVFXWmpbmzn9mGironHRuIYqKimzdwttBda9r0F/o+dFz48M7HmCwkFdmoTTVAldwVRnyHZ2DzkXnFA8SSVRXV5vS0lIM4y2gOlfd6xr0F/onRv0zI8BgJK/MQihdtcIVYDXOn8/SOehcemIUDgUrtW41HIIGTqrznhqF/v8k6X0WDr0HQj9h4bbpn0b1j4P64UX9AKP+P8X9I6H+udG940H/o7Jh/Q57nH7Y8dTJ85lGk37/7PSpi1nfWwHQW/LOLAAGOzIL/Se7C+T++yz0MzP6AT73n/X61IuB9Awl9Szcf05ru/773pmI0j6w/5jdLnRstvdWAPQFmAVAP6BnIul9Fgru2X42PpdZ6Cda9EuuStehH8jTDxXqv6t1rDMOobziP1gI0BswC4A+Rvd+tvdZ6Oeys01Yh8xCv66qXosjbhaSA7OAvgazAOhjFKCzvc9CvQ396rGeDaF1MgKZgH7uPf7uBWcWSst/Van2P3P6Uuan9nOZhZ7P/vrBRhg+YBYAfYyeB/UQNIkdf5+F0A8o6t0i+mFGfbofZtTzonkGTVK7HoYzC+HeEaEfZ9SPNupdI86QcplFf/9gIwwPMAsAAAiCWQAAQBDMAgAAgmAWAAAQBLMAAIAgmAUAAATBLAAAIAhmAQAAQTALAAAIglkAAEAQzAIAAIJgFgAAEASzAACAIJgFAAAEwSwAACAIZgEAAEEwCwAACIJZAABAkLw0i46Op+Z6UYm5WnDL3L51z+bTl+j9xhUPqm36RYW3TVNjS5cX5ecDtTUNtvxJ0rZtmw+Y8V/OM0+ePE0fAQCQnbwzC5nEH34zxiyYs9asW73Lfirotba2pffITnVVrT3m+bPUe4uTUCAd/elM8/Efvzarlm0zSxdtMu/9+kuzZsWO6Pze/B3GylN5qwwDwa0bd21+0vgx88ynI6ZmlrWtqanVlN17mHcmCABvh7wyi5dRsJ43a405efxiek2Kly+/7xL0mqNAqB6Begcqm2htaTOHD5y2xnLx/DVTXlZl1/u0tXWYsV/MMft2H88cJ9T6rnxYY/OQmcSP1bLWO9oet1tTk2Rieqn+tavFNm+VQcHaGY/SrKtttC1+v7xCaUr++Wh/Sd+1TttCKE8Zn4/qw52HruX9exWmo/1Jt3Rlcuq9SXGT9cuucmoZAIYmeWUWynPxgo1my8b9mWDro3Js33IwakVPMWtW7jBTJi6xwV+taAX7hXPX2R7D6uXbzbnTBemjOrl0ochMGrfQljsbSYFXy1ovrl+7bT56f4JdJ40bPdeU36+0wz7KW2XYuf2wzUPl3bB2T2b/cV/OzZRXKM2xn882Y0bNNiuWbDUfvjfezJiy3EyfvMyem3pVv/3HUebMqSt2/2wklVlG5tY9e/bczJ252uattF2661bttD2SJVGdq2wqvzNFlV/rVTb1VvQ5Z8bqnHUHAPlLXpmFUNDXMJGC2ZwZq8zVKzczLd67d8ptwHNDUmrp7tl51AZqoVbzgjnrbHBMYveOI92CapyQWej7wf3f2u8+ylN5qwyOK5duWHPSHIxQeTev32eWL95s61dpTvt6aSYA19c1WcPQOblWvHpJ0yYttfWdjZ6YhUzi0DenMumeP1sY1fHn5t7dB3ZZ13jpwk2Zc5PZqv5dXdrtizYlmjAA5D95ZxZCAU2GoEA5cewCax5qjSso+mPz0qxpK2wgVFALmYWOVwveBcwkkgKvbxYabnr3l1+YCWPnm727jpmqytTwlfKMm0WSsdwrrbDnpCEhpSkDcygNnYsCvUPpqfeSa84mqcxJPQvl7UhK109Hn5oL8etay/F8AGBokJdm4aPhKLVwjx0+a05/e9kGPY23K8g5KfAqYIfMQj2Tzz6eahrqm9JruqOA6RuKPrXszEJobuVBeZUt0/u/G2t7EElmsXnDPisfDWO5noLS9NPtT7OIly1kFir3pvV7u9Sz5HpBADC0yCuzkDGope0mm4XG0NWzKL5ZaoO8gr2GQrRd5dI8hJsDcAFQZqLtLg2H9lcLWelpX5eGejAKjMq/pPi++eRPk8zDikd2u1rjMgQX1HWcmxzW/hr/l4m5QF9YcCuTt4Z4Rn44yaah5Zbmx9YojkYmIwazWbiyq95Vdg0FnonOE7MAGJrklVkoKBVcvmk++2SaeefHH1lpyEfBVWUQCnIK9tr2s598bMf89X8SQkFR8wFar+EqF9R9lI7SkwG4NDR5q16H275r+2Hzy3/41G6fPGGR2bh2jw2kqpMD+07aMmnbz//uE9vrcAFUpqG5Fq3XcJXO50bRHTsPof217cjBM5lzGcxmES+7zkl1y/9tAAxN8sosAADg7YBZAABAEMwCAACCYBYAABAEswAAgCCYBQAABMEsAAAgCGYBAABBMAsAAAiCWQAAQBDMAgAAgmAWAAAQBLMAAIAgmAUAAATBLAAAIEhemoVeKlRb02julz40JcVl3aT12q79AACg9+SdWbS3PzF3S8pNQ31zlNeL9NquaL22az/tDwAAvSOvzEI9BRlAR3vP3sam/bT/YOthtDS3Wr0N+jtv3QsNDU2pV61Gpl35sPPte2+Tjo4n5vHj9vQSALwueWUWGlpSj+F10P46LhvFt+6YkyfOpZc62bPrkKmsfJReenMUNPWqUdWZ41rhTau3QX/nXVNTZ1au2GSvfWvLY7Nrx4H0lt6ha3H+3JX0Um6S6vzc2cvmwDfH00sA8LrklVloLiLb0FM2tL+Oy4YCZ1IQ2bRhp3lQXpleenNUDwqeCpyOoWwWPn1pFroWSaaeRFKdA0DvyCuz0OT1m5DruJ6YxfWiYjN54lwzbswMM2PaIlN2v8KuLym5Fy0vtuvnz11hh198VBcb1+80n46cYKZNWWA2b9xl1ynP48fOmAXzVtljp3w9z1RUVKWPioJsa5tZuXyT3TZpwpxo/1u2teyjZQXPCeNmmXFjZ5h5c1aYxih/tcDVK/LRfupBCeWtZZf+5ChvnZ/S0/Vas2qrGfvldDNx3GyzY9v+6Jq+tNu0j85Bx8yZtcz2IJ49e2727ztq9uw+ZNdpmEc6dOCEzUvBetuWvebwoZO2nOPHzrT7OsN/Ft0jW6PtSnPi+Nnm+NHTmd6AehFHj5wy0yYviMp+N2MW2c7bka3Odf6uDlTGvXsOWyNT3kpL53fzZok9ZswXUzO9I6E8L10szNwDq1ZstsNa7e0dZtmS9WbW9CVWUybNN9u37rPHaPuG9TtSdRwdd+rk+cy5qRynT13Mev1D9xXA2wCzCJjFYwVuL3C486+qqjHLl27IrFfA8vdzJLVylefsGUttQBF1tQ1myaK19lgFUgUjZ0iq2y2bdpt798rtsuNhRbUNigpkQvupXCqzyu6j81OeQp8Kas3NLXZZAXvFsg32OAX1gitFdr3Q9RS3bt4xa9dss2UTCl63i+/ac1OwvnThaqYcfm9C37+OzK4oCsRC+5w4dtaaib4rsF65nMpPy1qvoCz0fc2qLZk8dX4yp2zn7ZOtzl0daP3UyfNNeVmqx9nR/sRMn7rQBnelJ2RWzvR0/qpTt03Xxt9X6NqtX7vd3gdav3b1VlN6N3XfqXwH9h+zJidyXf+e3lcAAw1mET24CqZxnFnoPPQgq5VbW1ufCRB68E9/e8EGHie1snWMT7bA5QKH8Peprq61gbnFS1etXvVEfBTsFajPnrlkmppaMgGzJ2bh5y3U0j1y6FtTePWmWbxwjV3WmL9DQf3unfvppU5U7tUrt1hDdai8vllsWLcjYzqira3DBlUZjkyxtqY+c54PHlRmWuYK1DrvONnO2ydbnbs6SCqXyuSfo1+PO7Z/Y8viyqlrox6LS1/3hMrtDF7XUOm5e0Wo3KtXbraGl+v69/S+Ahhohr1ZKEC4AOXQ+ehh10PvltUKVatYwyJ62NUKP3fmcpeHWvIDkAgFLuHvo5azzMJPU/KDt0N5ldwuNd9EwUQtZR2bZBYKNi6/eKASziyEAv/Vguu2DDJJlU09m/KyVCD00badkTHo06Gy9sQs6usabY9GrWr/PDW0o16DypgtQCadt0+ozrU+PpfiGgcOvx51/jdvlHQpp+pJ94XrEUmut6P7RmbilkXcLFxZhF/ent5XAANNXplFf0xwa/x60YLVttfgUAtRrV4dq3PVOTkUNBU8NFygQOjKo8CgQBhHdbN54+7MsI/IFSyUnoLpo7RRCRmF0vFxde7Q8JECjYLY8qXr7dCK0KeGnVx++tR4uK6NUDrKT0MtOk+dr9D5aLhHgTg+DKPhEwV5lTtkFhqGun//gV0WGmbSPIby0bEaznKoTK4+s5lFtvP20T656twvoyOXWej8NQ/k6kbpO/NWb8yvG6Fz8IcSVZdnTl/KDGv5ZRH+9e/pfQUw0OSVWfTHn84KTdbOmrHEzJ651PYcNFnrAo3MZMG8lWb6lIX2gdZYs5uM1NDEhK9m2aEbHacA57cmHQpo2r5s8TobZHMFC6G8VQaVR58a6nHB3VEdBRWVSdtlDiqjK7N6BpocVX4qm4KPy0+fGpbSxOmi+att+U8cP5sOaBftxLaOmzd7uQ2ourbapn00Ge7OVXWgcofMYtOGXXYSW+XUcTpPdy761LLWK13l6c4hm1nkOm+fXHX+umbhzl91pfQ0Ia1rLyPWhLgmudUTk2QIeg7cNVQdqxwaynIG4JdFxK9/T+8rgIEkr8xiqPxTHgBAvpFXZiH4uQ8AgIEn78xCqKegoSXNRWjyOi6t13Z6FAAAfUNemgUAAAwsmAUAAATBLAAAIAhmAQAAQTALAAAIglkAAEAQzAIAAIJgFgAAEASzAACAIJgFAAAEwSwAACAIZgEAAEEwCwAACIJZAABAEMwCAACCYBYAABAEswAAgCCYBQAABMEsAAAgCGYBAABBMAsAAAiSV2ZRUlyGEELoDdRb8s4sWlufIIQQeg1hFgghhILCLBBCCAWFWSCEEAoKs0AIIRQUZoEQQigozAIhhFBQmAVCCKGgMAuEEEJBYRYIIYSCwiwQQggFhVkghBAKCrNACCEUFGaBEEIoKMyiB2pp6TD3SivNmVNXrUrvPrTrkvbNNxUW3Da//9Voc62wJHE7QghJmEVAlZX1ZsrEJeYPvxljFsxZb5Ys2GT++O44M/Xrpaa6uiHxmJ5q3eo9puDyrcRt/aH6+lazYsk2c6fkQZd1BVeK7ae/L0Iot26VtpmHj3reaGxqaje3i+/bz6Ttb1MNDa22bEnbnDCLHGpoeGxmTVtpFs3f2CWYav31oru2d1HzqMlcuXTLrnPbHz6ssy325ubUTVEVGc75c0VWldG2pqY2u/3rcYvMxnX7zPmz12w62tfvxdy6qRurrUu6N66XmkePGm1ahVdL7Hb/GH0m9XpUvrOnC82Yz+eY3TuOmUsXbth1ksriyq9ek1TxoMaci8qlMig9Sd+1Ttvi6fv7+2VG6G2rqemJGTmvzmw/1py4/U21YneTuVDU+dyHVFfXbDZv3GM/3boHDx6Z5Us3mnFjZ5rxY2eZRQvWRs9fRZfjBkIPH9aazZv2JG5zwixyqKjwjvns42mmvOxR4nZJwfHLUbOtCbh1CuSTxi829XUt1gj+9N542yORtO/tW2Vmz67jZuSHk20PZe2qXaa8/JENsiuXbc/sPybad/Sns8yD8lRwVrqf/GmS+fzPM8yieRvNnz+aYr7480wzd+Yau596PhpSWr9mTzfDqK1ttus/en+CmTNjtdm0fr9dp3KrrK78MpLRn8606SoP9aKmTFhi95n41cLIPFeZ3/x8lDly6JzdX2XesHavLdeyRVvsPn6ZEXrbUkD/44w6q6qavhs+7q1ZXL9+x8yYtjjq6Zdn9ikrqzL79x6LnquB7X1gFgm8jlmcPH4pE/STtkshs1DQ37n9SJdjnLRN+7rlUyevmPFfzrc9By0r4K9ZsdMsnLvB9lK0rwxGxqLtj6obbU9h/ux1mda85h5GfTLdPKyozaTrpPLMnr7KltmtSzIL9XhkJFq+f6/KGsaWjQcyBnTimOplUXTTt9heiczBHa99tK+MScsIvU21tDwx45bXmzNXH5uVe5rMrhOdz3JNXYeZu7nRrN3fbP7qT9Xmf/9Nlfl0fl1maKm8st3M2tBoFm5rNP/uD1Xm//p9lZm2tsHUNaS2O7M4fL7V7uPSlXafbDH7T3eNG75ZaNhn6eINpuR2cjzSc3T61CUzddICM2b0NDNl0nxz69Y9u62+vsXs2nnI7N512EwcP8d88dlks2nDnkwMUNrbtuw348bMNGO/nG7Wr91hn1VtKyi4aaZOTqU5e+Yya05aj1kk8DpmoeCslrKr6CSFzEJDP7/7xRdm7BdzzdZNB83t4vJM0I2bRZKxqHfz1ei51hi077xZazPDW+4YBXi3rHKoPL4hOPXULDZv+KbLMdrul9M/Z+0vA9NciJN6S+783TEIvQ0V3m4zXyyqjwLpE1N8r92MmF2XCfYyi7/94pGZt6XRmorW7YzM5LMFqf3vVbSbfxuZhDMY7SNz0f5admah3sqfZtaZsoep51LpatjLLTv5ZqFhW5mFAr+/j5NixL17D6NnPVXWe6UPzbIlG+1wsY6fNWOpOXnigt3PNtA2740at6nlDet2mhPHz2e2XS24Ze7frzQlUQ9Gw1y1takh7/KyarNk0Xq7jFkk8DpmUVpaaT4dMTXnXwopcGrYxm/JyyD8YNnY+NjcvHHP7Nt9wk6Uqweh9XGzWLNyl5VbljSM5Vrx2lfH+Nv7wyz89EJmcfjAWTNjygp782vZSeamG9Udg9Db0MyoZ3DoXGq+UcH+61UN5uSV1LKC+p+joF5R1RnU6yMjUe9CRiHpu9a57dpXx+hYfxhKvRY3J6L8FsV6GlLcLFYu35yZK0ySegoK8Ke+vWSOHz1nVizfZI+VVq3YYqqr6zP7njtbYHbtOGTXyQBqarrnf/DASXP40ClrDE47th2IYlMpZpHE65iFgt2encfsMIwmhHXxtE4T2ovnb7J/DaWgqPH9A/tO2W3VVQ2ZMX4F2luRSbgJYd0YGvNXgNWyAv2uHUftcZJMacQHX9vehJYrHtRao9gbmYz27wuzmDxhcWRmVzN5av/emEXZ/Wrbszh6ONWSUR1p+I45C/S2daes3Q4d/cufV5p//YuU/oe/f2h+P7XW9hz60izUi1DvQtvHLq23vRh3jJNvFtLihWtt7yG+n9t34fw15tuTF20g137qMbhj/bkPyZlFZWVdurfQuc1pz+4j5tiRs13MQlJc0idmEeN1zEJSADz9bYGdGH7nxx9Z6bvWaZv2kZHIULTtvV9/abZtPmhb8LU1TWbntiN2GErbfv53n9hJY3chZTra/2c/+djs2p4yjQtRUHZpaSJZE+FuLLK3ZiHJqJSuyqIeUG/Nwi5Hhqh5EpVZ56I5DzevgtDb0vJdTWbrka5B0/1llIK8Av47Y2rMjmOdQ0FnCx+b96fV2qEqmcX/82G1OXets/Wv3sNXy+qjZ7X7BLd6MdPWNZivVzbY7W69UzzInz1TYIeF3BylpNigYaOKihqzYtkmO/+g9TILmUvILBRDNq7fZec73DYdqzzUS1GPxKWpfV3vBLNI4HXNAiGUf9Lk9O8m13abN5A0IT1mSb15VNthA78mrf/LZ4/M334e6YtHpvRB6hiZxecL621P4SfR+r/5uLrLX1TFzUL/d/GXf6w2V4uT/3Q8KchrwvnrCXPM5InzzMxpS+yn1umvoRT8Z0xdbOc2ZCoK9CGz0HfNQah3oWMlNy+hbRfOF5qvxsww8+eutHlpaEqmgVkkgFkghCT1LDSHoc+k7TKLSat7/o+3MguZkHovSduTgnw+CbNACA1L9YVZNLekhp/0V1LqlfhDVnFhFpgFQigPpXkFDUUlzS9IMgJtT9rmqzHqSWi4y58IT5KGezQnoc+k7YNdmAVCCKGgMAuEEEJBYRYIIYSCwiwQQggFhVkghBAKCrNACCEUFGaBEEIoKMwCIYRQUJgFQgihoDALhBBCQWEWCCGEgsIsEEIIBYVZIIQQCgqzQAghFBRmgRBCKCjMAiGEUFCYBUIIoaAwC0/ahhBCw1lJsVHStt5CzwIhhIa4MAuEEEJBYRYIIYSCwiwQQggFhVkghBAKCrNACCEUFGaBEEIoKMwCIYRQUJgFQgihoDALhBBCQWEWCCGEgsIsEEIIBYVZIIQQCgqzSKuh4bG5dOGGOXPqajdpfU1Ns5kzY7WZN2utaWpsS0wDIYSGqjCLtGprm82m9fvNiiXbzKJ5G83vf/2lNQcta7223yl5YJV0PEIIDWVhFgmqfFhnvhw129y6eb/L+tK7D630XT2RwoLbpi4ykcKrJeb8uSLz6FGj3aZPLWt9U1PXXoiW3f5VlfVdtiGE0GAVZpGgbGaxe8cxK3+fL/4808yatspMGr/Y/O4XX5iVy7abER9MtL2TP380xYz5fI6prmqwx9wuLjcjP5xsZk5daZYs2GQ++N1XZu/uE6alpaNLPgghNNiEWSSop2bx6Yip5vS3BXZZAX/jun3mwz9MMGX3q+069TC+Gj3XnD1daBobH9thrW/2fpsxB+2n7aWllXYZIYQGqzCLBPXULCaMXWDKylLGIGloST2M+rqWzDr1IHSMMxc3DyItXbjZfPDuV/Y4tz9CCA1GYRYJ6qlZyBj06bbnMotH1Y1m7OdzzLmz1+wxvtTrcPsjhNBgFGaRIAXwvjYLDT1t2XjAfD1ukal4UGu3afhJw1jMWSCEBrswiwT1h1nou/6CSvMav3znz+adH39kJ8QP7D+NWSCEBr0wC4QQQkFhFgghhILCLBBCCAWFWSCEEAoKs0AIIRQUZoEQQigozAIhhFBQmAVCCKGgMIuYysoemGvXrpkrV64ghNCwkGKeYl9STHTCLDypsu7eLbV5AwAMFxTzFPtyGQZm4UnuilEAwHBEsU8xMCk2SpiFJ3XHAACGK4qBSbFRwiw8YRYAMJzBLDwwCwCAZDALD8wCACAZzMIDswAASAaz8MAsAACSwSw8MAsAgGQwCw/MAgAgGczCA7MAAEgGs/DorVmonIcPnjSTJswxE8fPNls37zHPonLGefXqlblyuchMnTzf7hvfr7W1zaxds818HW2bMW2RKSm5l96STGNDk5k/d6Wpr29Mr0nx7Nlzs3XLXtPc3JJe04nKsHP7N6b41p30GgCA7GAWHr01i5MnzplDB07YQCxK75aZHdv22/JLCt7i1s07ZsP6HdG5vLDLMo5NG3bafbRu1YrN5l5pud2mc1y6eJ0pu19hl5M4cuhbs2HdDrN/75H0mhSqo9kzl5rdOw9myuS4c+e++fPH4821wpvpNQAwFGlqbE5/606ubXEwC4/emoUC/oPyyvRSZ6BXi/96UbFZtGC1NYx1Ua+hqvJReq9Uj2T92u2murrW3I2C+LaoN+AHd63bvnVfeqkrj6NeyOqVm01ry2NrQP7FVx3puDWrtnYplwxp88bdNk/MAmDoomd8zOhp5pv9x9JrOlFj9v3fj0rclgRm4dEXPYsDUcWr/KLgSpH5/LNJ3QxEQ0xtbV3Le+Cb4zZw6xil4yMjWLlikz3nONr30sVC+/3ihavmxLGz9rvQ/jt3HDAVFVWROeyy9SjOn7uSKms6TwAYmqjxKEOIm8KF8wWZ9TKNnoBZePTWLFTO40dPm2mTF5gZ0xbb72rZ+2bx5MlTG/izmYUL5D7ZzELnr16Fehfi8eP2aHmL6Wh/YpedWejz6JFT5mrBdbuPeiBah1kADH3ihvEmRiEwC4/emkUclXft6q1dJp6T1mnISS1/mYomnPfsOpTekkLrtT0+76BeyMgR48zoz6dkNOJPY20PQ/hmIQORsWiIS3MmArMAGB7IMDQc5UxC31/HKARm4dHXZqGJa80NqPySm+BWMN+/72hmuEqT15rU1lyCzmnFsg2mtrbebtNxmgtxAd6hfTUX0RD7Cygtr1i20daPbxai8OpN26tQmgKzABg+OMN4E6MQmIVHb82irrbBTJ+60A4ZaShqy6bdmT+JdRPc7oT1J7aTv55nZk1fYubMWtblz1traurMrBlLzLzZy82Er2aZE8fPdutVyDy2bN7Tbb2W1Xu4cf12N7OIg1kADC/8P4B5XTALj77uWQAADBUwCw/MAgAgGczCA7MAAEgGs/DALAAAksEsPDALAIBkMAsPzAIAIBnMwgOzAABIBrPwwCwAAJLBLDxymcW1a9dsvgAAww3FPsXApNgoYRaeysoemLt3SzEMABhWKOYp9ikGJsVGCbOISZUld1V3DCGEhoMU83IZhYRZIIQQCgqzQAghFBRmgRBCKCjMAiGEUFCYBUIIoaAwC4QQQkFhFgghhILCLBBCCAWFWSCEEAoKs0AIIRQUZoEQQigozAIhhFBQmAVCCKGgMAuEEEJBYRYIIYSCwiwQQggFhVkghBAKaliaBUIIoddXb8krswAAgLcDZgEAAEEwCwAACIJZAABAEMwCAACCYBYAABAEswAAgCCYBQAABMEsAAAgCGYBAABBMAsAAAiCWQAAQBDMAgAAgmAWAAAQBLMAAIAgmAUAAATBLAAAIAhmAQAAQTALAAAIglkAAEAQzAIAAIJgFgAAEASzAACAIJgFAAAEeetmUVJchhBCaBApCXoWAAAQBLMAAIAgmAUAAATBLAAAIAhmAQAAQTALAAAIglkAAEAQzAIAAIJgFgAAEASzAACAIJgFAAAEwSwAACAIZgEAAEEwCwAACIJZAABAEMwCAACCYBYAABAEswAAgCCYBQAABMEsAAAgCGYBAABBMAsAAAiCWQAAQBDMAgAAgmAWAAAQBLMAAIAgmAUAAATBLAAAIAhmAQAAQTALAAAIkvdm8ezZc9Pa2mbzyoXK2Pa43bS1dZhXr16l1wIAQE/IS7NQsC8suGU++2SaeefHH2WkZa33zaCl+bFZunCT+fnffZLZ75f/8KnZvGGf+e7ps/ReKQ4fOG3e/91Y86C8Kr2mk+tFJeb3vxptKh5UW+m7n7evnuw38sPJ1uRET/PV/jouKT0n7Q8A0NfknVnICA4fPG1+8dORZsPaPaa+rtHmVV/XZJc/fG+8qaqstfsqwP7pvXFm4tgF5t7dB+bJk6e2Z3H+bKEZ8f5EM2HsfNPS8tjuKxS0FXA/HzndNDW1ptem8IO266UoeEtLFmw0k8YvMg31TXZZ27SPM4sL5woz+zr5PZye5qv9dZxLY8/Oo+bjP34dnW9NZt3LFy/TRwIA9B15ZxZl9x+ad3/5hTUMvwchtPz82Qv7XXlPGrfQzJyy3H6Po6Cs4Lxl4/4uQVu9DgXn+HF+0I6zatk2M33ysui8n6fXpHBmEWrtv2m+Os7voQAA9Bd5ZxYaPlKP4OmT3HMUJcX3bZC9V1qRXtOdk8cv2h5GQ0OzXXbBt6jwtvng3a+6GFJ/m8Wb5ItZAMBAkVdmoV6DWt4KziGOHT4bDKQKwJ/8aVImEGeCb0ubDdi//vlndg5E9MYsZAAjP5zURTIzx5vmi1kAwEAxrM1CvY6P3p/Q3SyiY3RO61bvykw898Ysdm47ZK5Gwd+XjMHxpvliFgAwUOSVWQgNQ43+dKadRM6FjEBBtvhmaXpNd/btPm4+HTElE7jjwVfllzlpbuPE0fNvbBYK+Ll403wxCwAYKPLOLBQ0//CbMebQN6cSJ7g72p/Y7wrcs6atMDOioKu/goqjVrta7/EJ7njwdRPh+uurgTIL0ZN8MQsAGCjyziwU2DUxrXH9BXPWmrJ7D22w1J+PLl+82c4PPKx4ZPetfFgTBdNJ9v8vrly6Yf9MVkFYRqMAHP/Lo2zB1xnLm5pF4p/Opv+8VrxpvpgFAAwUeWcWQoZReveB/f+Jn/3kY/s/CvrUstb7PQ71NDat32t++4+jMv+4pv/FOHn8QlTerv+TkCv4asJZ/7PxJmbh8vXlG8Cb5otZAMBAkZdm4SNjUF6+QWRDE+SuNQ8AAD0n780CAAD6H8wCAACCYBYAABAEswAAgCCYBQAABMEsAAAgCGYBAABBMAsAAAiCWQAAQBDMAgAAgmAWAAAQBLMAAIAgeWcWSreqstbcKSk3JcVlCCGEEqQYqVipmNkX5JVZKE1VQEvzY1sGAABIRjFSsVIxsy8MI6/MQi6pkwcAgJ6hmKnY2VvyyizkkMobAAB6hmKmYmdvySuz0DgcAAC8Hn0ROzELAIAhDmYBAABBMAsAAAiCWQAAQBDMAgAAgmAWAAAQBLMAAIAgmAUAAATBLGBIo3usrq7RfgLAm4NZBGhoaDbnzl01p09fMadOXTbffnvJftc6besvXr0y5uHDRzYv5am8b90qtfUkrl27bWprG+z3OCUl901x8T37/YcfXpm7d8szZdfnvXsVNv3+5tkz3QAv00tvjsr65Ml39lxeF5WhsLDYfgLAm4NZvAZlZZXm+vU76aX+Ra3hy5evZ4KtAmZLS5utM3HxYpG5cOFaxjwcTU0t5vjx85lyPnhQZY3FBVp9Nje32u/9jcqgOustCvQ637a29vSanoNZAPQNmMVr4JtFW1uHKSi4acvnaGl5bIqKSszjxx3RfiXm5s275uTJi+bEiYs2YLvAr2MV/E6cuGBb+0o33tKvqKi2x2Tj2rVim796CQ6loWMUHF05b9++Z3sWIVS2oqLbmfIqbQVYpVleXmV7JCrv+fOFkdmkfrW3vT11nsozddwF26PRMcpTpqX1rhem9K5evWX303r1lJyJ6XzVI9K+rl7Uc3r+/IW5cuWGOXr0nC2DyqV1Pjr2zp2yLnWqMqsccbN4+LDG9ta039mzBZlz0TW5fPmGd72K7T2pNFSH7vx0jK6z1peWPrB5ab3yfvLkqU0LYCiCWbwG8Z6FjEEtd4fMQctqASu4uECuwHLjxh0rBWUFlkeP6uw2nbcCYHV115//1XkrcGrfqqrajNE4FMxSvY8bmSBVWVljA2NZ2cNMORXYFGSvXLlp6uubbH5xVD4FcQV4fZeUVlNTq/1UHi5/9VxkGDIKnaeCpconlPalS0WZc/F7Fi6PeJ0o4Artd+bMlcy5uHxUDwr0qodsPQsdq/rWuQodo2Nrauq7mIXOX70xbRfaX+naeyzKV+ckVDbVr0xIhiWz0jqhc5TBaZvq1NWnrqf2cz0/gKEGZvEaxM1CwUeBXufhWqYKSgpqfoAVHR1P7DoFFQ0vPX7cbveT1Ap2cww+ClBq+aplq6CsoOeCk4KZjpUxyKSUl8qioap4ORXcVFb1ApSOa/07VLZUy7izl+RQgJdh+CgdlTnpPH2D8L+7PBobWzLnXVPTYNMX2k/n6fANoidm4R8rFMxVL75ZaB/1Xlz+ks5FpiI6Op5GZl9tDU3lUrqtrW22N6Gei767npDSdHUg6Xqq/vUdYCiCWbwGCh5+EFbAVVBRS1otZNdKVsDIZhaplvr1TJBx0nnmQnm5ACWcWaje1KLVsgKhiJfTR/ur9e9PjrthMdV3HOX56FEqmDp8s1C+PtnMQnmoVa8eg3/eCtA6N+3n9hX9YRZaVtD385d0nWS6ysOZmfZz5dF2/bGBzlu9NNWdjMH1IjvVYesXYCiCWbwGCh7xICyjkAmkDCBVPgUOteDdUJOQkchYnj9/aff3/5JK5xgPMhoiUUvWoYCqwKwgKJxZCLXQNeyigCj8cqpH4Y+lp8ziul3vcKbnz38oqOu4+HBLe/sTG/TVg1H+ucxCw1r+sJOCtoKuQ9fXGaqOcccJ3yB0nyg4+/Xho+M0hOUMV2VVHavsvlnonH0TV5lk4iI1hJiqW1fXSjd1X3ZeG52P9lXa/h8OaD+Xv87LrQcYKmAWr4GCR9wsVG4Fak3WOhTgFGAVgM+cKbCtUQU+F0wU9LReAU6faum7bQ7to6B8+vRlG9yVhoKU8hO+WcTxy6kAmcqrwJZBJibjUkD0Uf7anirTlUx5tZ+GrXSczlPlcD2NkFnI8NyfGStPl4fSOHeu0A7vOAPQMe444ZuFUJDWcSqDjMzHna/SU16av3BDbb5ZCPWItN2di3ok2k89CnfeSkN1rnRVf9pP9afroW0qs6sXl5bqR2lr8v3s2atdTBFgKIBZ9BKVW61e/89Rk4Io9B9xowGAvgezeEM0DCGTUAtUf9Xjt9Qxi4EFswDofzCLN0TmoMlZlS+OxqtVdhgYNAfh5iEAoH/ALAAAIAhmAQAAQTALAAAIglkAAEAQzAIAAIJgFgAAEASzAACAIJgFAAAEwSwAACAIZgEAAEEwCwAACIJZAABAEMwCAACCYBYAABAEswAAgCCYBQAABMEsAAAgCGYBAABBMAsAAAiCWQAAQBDMAgAAgmAWAAAQBLMAAIAgmAUAAATBLAAAIAhmAQAAQTALAAAIglkAAEAQzAIAAIJgFgAAEASzAACAIJgFAAAEwSwAACAIZgEAAEEwCwAACIJZAABAEMwCAACCYBYAABAEswAAgCCYBQAABMEsAAAgCGYBAABBMAsAAAiCWQAAQBDMAgAAgmAWAAAQBLMAAIAgmAUAAATBLAAAIAhmAQAAQTALAAAIglkAAEAQzAIAAIJgFgAAEASzAACAIJgFAAAEwSwAACAIZgEAAEEwCwAACIJZAABAEMwCAACCYBYAABAEswAAgCCYBQAABMEsAAAgCGYBAABBMAsAAAiCWQAAQBDMAgAAgmAWAAAQBLMAAIAgmAUAAATBLAAAIAhmAQAAQTALAAAIglkAAEAQzAIAAIJgFgAAEASzAACAIJgFAAAEwSwAACAIZgEAAEEwCwAACIJZAABAEMwCAACCYBYAABAEswAAgCCYBQAABMEsAAAgCGYBAABBMAsAAAiCWQAAQBDMAgAAgmAWAAAQBLMAAIAgmAUAAATBLAAAIAhmAQAAQTALAAAIglkAAEAQzAIAAIJgFgAAEASzAACAIJgFAAAEwSwAACAIZgEAAEEwCwAACIJZAABAEMwCAACCYBYAABAEswAAgKz8+te/tp+YBQAAJOKMQmAWAADQDd8oBGYBAABdiBuFwCwAACBD3CiYswAAgC5kMwox7MziTkm5zRsAADrJZRSKmYqdvSWvzKKqsta0ND9OLwEAQC6jEIqZip29Ja/MQmnKIXXyKgMAACSjGKlYqZip2Nlb8soshNKVS6oCNA6HEEKouxQjFSv7wihE3pkFAAAMPJgFAAAEwSwAACAIZgEAAEEwCwAACIJZAABAEMwCAACCYBYAABAEswAAgCCYBQAABMEsAAAgCGYBAABBMAsAAAiCWQAAQBDMAgAAgmAWAAAQBLMAAIAgeWcW1++9MP/wVYv5p/+p1vxXf1WDUJ9K95XuL91n/c2tjkrz+5Jl5i8ujjD/7PwHCPWpdF/p/tJ91hfklVnoAdbDvGJvlN7TV+m1AH2H7ivdX7rP+tMw9AD/xcWPzfra06bj+7557SWAj+4r3V+6z/rCMPLKLNTi04MM0N/oPtP91l+oxacHGaC/0X2m+6235JVZqLVHjwIGAt1nut/6Cw0R0KOAgUD3me633pJXZqExZYCBoj/vN40pAwwUfXG/YRYAWcAsYKiAWQD0I5gFDBUwC4B+BLOAoQJmAdCPYBYwVMAsAPoRzAKGCpgFDBitHT+Yc9eja/t8+PzpMmYBQwXMYhhwr+ql+dXXLeaf/6TOSt+1bqC5WfbS/PVHjaa+5Yf0mqEPZtH3NL5oM//lxgyzpubb9Jr+p+55q6l81pheGp5gFkMc/dzE//KrBrNk1xPT9uSVefLdK7Pr2+/MiDmPzdNnA9vCxyz6luFqFgrcf1k4wSypPpJe0/98UrrW/OTmrPTS8ASzGMJouOcXE1vMntPfpdd05cXLV2bp7ifmX/683tbLv/5lvTlV+NxuU0D/2y+azcxN7eaf/bjO/JP/WGM+igxGhiNeRR8Hzj+zx/zXf11j/vKPjebG/dTvIF0qfmH+3fuN3dZjFn0LZpEyCwXxD+6sMP/blS9snejzQGOh3Xa7o8r8v9enmf/2/B/NP7/wJ/MfiiaZ0qc1pv7FY/Or24vsuv/+wof2pyxaXqbii4zh58Xzzf9dOM783c3ZdlnpOg2kSQ0m+uJ+wywGKfervzd/83GTqW1KDs4K+EWlLzI9jMMXn5n/GO3f0vaDDej/668brFnIdDTf8Pdjmq25iONXnpm/+rDRlEV5KJ0LN5+bLceeRsbw0uZZ8iA1zFV454X5DyMaTVX995hFH9MXD28+kmQW//bqV6ao/YF58ep783HpGvPvr02w+426v8H8pmSxXS/d7HhonvzwzPyseJ55785yaxDS39+aYw1HyBz+x4sfmy1158wPJvVs0LPALIY0CtgKztnMQsgozl5/bg5deGaD/d980mSDuaRjFeAdMopP5j223z9b+NhsPvrUfvdZue+J7c0oPelgpP/8WZM5XvAMs+hjMItOs1Awd+xrKDD/puBLU9xRaWY+3Gf+1eVPzYjIQHY3XDatL5+YkifVdvvn9zeZuZUHrLT9r699bdNOMgbMArMY0mjISENJRy4l/9ictv/ky2YzfUP7a5uFPpPMQvv4ZuFU1/wDZtHHYBZhs1DP4HTLbTO2bIv5m6LJ5v8oGG1N4/+MPn2zkDbWnjHf/fAcs8gCZjHE0dCSJrhPX3tufoh61G7oaf72DnOnouswlSbDXTAPmYUMSPMRD2u/t8ual1BeGobScW4YSr+8evn2C5svZtG3YBZhs5DKv6u362uet9jhqeWPjtthJzcMJUPZ23DFzm+IJGPQcNb/d2Om3VeGMhzBLIY4bj5BE846d+nfvNtgJ7JfRPF8xsZ28y/+vs4ainohPTULpbvx8FPz3/2kzvzFT1PHKx+tP1HwzPzPP6u32/6b/1xrFu7osHlhFn0LZhE2i/Hl2+38w/906RPzLy6OMO+WLDVPvn9mHkQGoj+/1eS21quncbLllj0+ySwK2srsPkpHJjMcwSwA+hHMAoYKmAVAP4JZwFABswDoRzALGCpgFgD9CGYBQwXMAqAfwSxgqIBZAPQjmAUMFTALgH4Es4ChAmYB0I9gFjBUGHZm8U//U639r2KA/kb3me63/uIvLo4wHd8n/5QLQF+i+0z3W2/pE7OwGgCz+IevWsyKvalfTgXoT3Sf6X7rL/Sz2utrT6eXAPoP3We633pLT8zC+UF3s4g0kGah3z9Sa08PMj0M6A90X+n+0n2m+62/uNVRGbX2PrYPMj0M6A90X+n+0n2m+623vJZZRN7wWmZhDeO77/rMLIQeYLX49DBrTBmhvpTuK91f/WkUDj3AavFpiEBjygj1pXRf6f7qC6MQziwU01187xOzePbseb+YBQAADDxxs1CM73OzcENRAACQnyiG2yGovjSLlGFgFgAAQ4Uks3DxHrMAAABLL8witSJuFs4wMAsAgKFDNrNwcR+zAACA3ptF5h/ztGPaMDALAIChRS6zcPHfGoX1B88sUoaRyyy6/2MeAADkJxmzyPYPeT01i6Tfh4r3LgAAID+J9yriZuH/LtRrmUXKMDALAIChQNwsXJzvuVlE0g5WabPo7F1gFgAAQ4Eks3DxXrHf+YDzhR+9evXKM4vUBt8s/N6Fm7dwhgEAAPmJM4qUWSTPV3SaxfddzSLTu4g+k8wi3rsAAID8JN6rSDILNwQlb8hpFv68RWfvImUWko4FAID8QrHbxfGkIaj4fEV2s4hkexZps3CG4dzHGcaLaD0AAOQXit2+UTizcPHexX/nBxmz6E3vQvsAAEB+oJjt4ndPexW5zSKSDrBKu40zi7hhyKV0nNIBAIDBhYvxrkfhG4UzCxfnXdx3PuB8IYtZpHeMvqcOSupdpDJTpvoPQE2W6E+xJP1noGRfrtERfbZ3ZNTW1p6ox4/bEEII5VBS7JT8GGtjbvrFRu6/tN2fyXb+t3YqhjujcGYR71VouZtZdDeMTrOwSrtONsOwppFgGL5pxI3DV1IFIIQQ6lRS7JQy8dUzCck3ChensxmFVcwsfE/IbRaB3kU2w8hlGk7u5DInmVABCCGEOtUtbvox1Yu1vklkM4q4WXTvVfTQLCR3QMZtemgYSaYRN464/JNGCCHUXUmx08mPtXGTkHpiFKk4390opC5mETcMJWAPjL67hGxXxTOMrqaRkl9AV+i4ccSVdPIIIYQ6lRQ7nfxY68dgF5fjJiG5eJ4xChv3U7Hf9wJ5QzezkPydnMv03DA6C+cXWHIT4bmUVAkIITSclRQruyg9ce3LxeGk3oSU3Sg647/kfCHRLCR/5yTDcENS2UwjbhxJ5pEkaygIIYQySoqVcfmx1jcIyY/RLm53GXry4rwf+31P6JFZSCHDyGUaUso44ifUVUkVgBBCKHfsdPE1Hnf9mOzH6p4YheR7wo/cP2wkKX5gkmGETEOKn0CSOs0EIYRQkpJiZ1zx+OvHZt8kbOz24no83sf9IKdZSPEEMobRA9OQ4gWPK+lkEUIIZVdSLPUVj8O5TEKKx/kkL7BmIZI2OsUTUsa+YfTENHwlnRxCCKHXV1KMdUo0CRvDnbr+1ZOU5AGvXr0y/z/Tj81ZFNO6ygAAAABJRU5ErkJggg==;" vertex="1" parent="1">
          <mxGeometry x="-378" y="800" width="395" height="691" as="geometry" />
        </mxCell>
        <mxCell id="ckLJkR33WfwNbVA9dTh0-38" style="edgeStyle=orthogonalEdgeStyle;rounded=0;orthogonalLoop=1;jettySize=auto;html=1;entryX=-0.024;entryY=-0.156;entryDx=0;entryDy=0;entryPerimeter=0;" edge="1" parent="1" source="ckLJkR33WfwNbVA9dTh0-5" target="ckLJkR33WfwNbVA9dTh0-29">
          <mxGeometry relative="1" as="geometry" />
        </mxCell>
        <mxCell id="ckLJkR33WfwNbVA9dTh0-5" value="" style="rounded=1;whiteSpace=wrap;html=1;" vertex="1" parent="1">
          <mxGeometry x="160" y="200" width="280" height="40" as="geometry" />
        </mxCell>
        <mxCell id="ckLJkR33WfwNbVA9dTh0-6" value="Campaign Type" style="text;html=1;strokeColor=none;fillColor=none;align=left;verticalAlign=middle;whiteSpace=wrap;rounded=0;" vertex="1" parent="1">
          <mxGeometry x="170" y="200" width="120" height="40" as="geometry" />
        </mxCell>
        <mxCell id="ckLJkR33WfwNbVA9dTh0-39" style="edgeStyle=orthogonalEdgeStyle;rounded=0;orthogonalLoop=1;jettySize=auto;html=1;entryX=0.006;entryY=0.206;entryDx=0;entryDy=0;entryPerimeter=0;" edge="1" parent="1" source="ckLJkR33WfwNbVA9dTh0-7" target="ckLJkR33WfwNbVA9dTh0-25">
          <mxGeometry relative="1" as="geometry" />
        </mxCell>
        <mxCell id="ckLJkR33WfwNbVA9dTh0-7" value="" style="rounded=1;whiteSpace=wrap;html=1;" vertex="1" parent="1">
          <mxGeometry x="160" y="280" width="280" height="40" as="geometry" />
        </mxCell>
        <mxCell id="ckLJkR33WfwNbVA9dTh0-8" value="Response Type" style="text;html=1;strokeColor=none;fillColor=none;align=left;verticalAlign=middle;whiteSpace=wrap;rounded=0;" vertex="1" parent="1">
          <mxGeometry x="170" y="280" width="120" height="40" as="geometry" />
        </mxCell>
        <mxCell id="ckLJkR33WfwNbVA9dTh0-40" style="edgeStyle=orthogonalEdgeStyle;rounded=0;orthogonalLoop=1;jettySize=auto;html=1;entryX=0;entryY=0.5;entryDx=0;entryDy=0;exitX=1;exitY=0.5;exitDx=0;exitDy=0;" edge="1" parent="1" source="ckLJkR33WfwNbVA9dTh0-9" target="ckLJkR33WfwNbVA9dTh0-33">
          <mxGeometry relative="1" as="geometry" />
        </mxCell>
        <mxCell id="ckLJkR33WfwNbVA9dTh0-9" value="" style="rounded=1;whiteSpace=wrap;html=1;" vertex="1" parent="1">
          <mxGeometry x="160" y="360" width="280" height="40" as="geometry" />
        </mxCell>
        <mxCell id="ckLJkR33WfwNbVA9dTh0-10" value="Campaign Goal" style="text;html=1;strokeColor=none;fillColor=none;align=left;verticalAlign=middle;whiteSpace=wrap;rounded=0;" vertex="1" parent="1">
          <mxGeometry x="170" y="360" width="120" height="40" as="geometry" />
        </mxCell>
        <mxCell id="ckLJkR33WfwNbVA9dTh0-23" value="Response Type" style="swimlane;fontStyle=0;childLayout=stackLayout;horizontal=1;startSize=30;horizontalStack=0;resizeParent=1;resizeParentMax=0;resizeLast=0;collapsible=1;marginBottom=0;whiteSpace=wrap;html=1;" vertex="1" parent="1">
          <mxGeometry x="680" y="233" width="140" height="120" as="geometry" />
        </mxCell>
        <mxCell id="ckLJkR33WfwNbVA9dTh0-24" value="None" style="text;strokeColor=none;fillColor=none;align=left;verticalAlign=middle;spacingLeft=4;spacingRight=4;overflow=hidden;points=[[0,0.5],[1,0.5]];portConstraint=eastwest;rotatable=0;whiteSpace=wrap;html=1;" vertex="1" parent="ckLJkR33WfwNbVA9dTh0-23">
          <mxGeometry y="30" width="140" height="30" as="geometry" />
        </mxCell>
        <mxCell id="ckLJkR33WfwNbVA9dTh0-25" value="YES/NO" style="text;strokeColor=none;fillColor=none;align=left;verticalAlign=middle;spacingLeft=4;spacingRight=4;overflow=hidden;points=[[0,0.5],[1,0.5]];portConstraint=eastwest;rotatable=0;whiteSpace=wrap;html=1;" vertex="1" parent="ckLJkR33WfwNbVA9dTh0-23">
          <mxGeometry y="60" width="140" height="30" as="geometry" />
        </mxCell>
        <mxCell id="ckLJkR33WfwNbVA9dTh0-26" value="RATING [1-10]" style="text;strokeColor=none;fillColor=none;align=left;verticalAlign=middle;spacingLeft=4;spacingRight=4;overflow=hidden;points=[[0,0.5],[1,0.5]];portConstraint=eastwest;rotatable=0;whiteSpace=wrap;html=1;" vertex="1" parent="ckLJkR33WfwNbVA9dTh0-23">
          <mxGeometry y="90" width="140" height="30" as="geometry" />
        </mxCell>
        <mxCell id="ckLJkR33WfwNbVA9dTh0-27" value="Campaign Type" style="swimlane;fontStyle=0;childLayout=stackLayout;horizontal=1;startSize=30;horizontalStack=0;resizeParent=1;resizeParentMax=0;resizeLast=0;collapsible=1;marginBottom=0;whiteSpace=wrap;html=1;" vertex="1" parent="1">
          <mxGeometry x="680" y="120" width="140" height="90" as="geometry" />
        </mxCell>
        <mxCell id="ckLJkR33WfwNbVA9dTh0-28" value="One Time" style="text;strokeColor=none;fillColor=none;align=left;verticalAlign=middle;spacingLeft=4;spacingRight=4;overflow=hidden;points=[[0,0.5],[1,0.5]];portConstraint=eastwest;rotatable=0;whiteSpace=wrap;html=1;" vertex="1" parent="ckLJkR33WfwNbVA9dTh0-27">
          <mxGeometry y="30" width="140" height="30" as="geometry" />
        </mxCell>
        <mxCell id="ckLJkR33WfwNbVA9dTh0-29" value="Automation" style="text;strokeColor=none;fillColor=none;align=left;verticalAlign=middle;spacingLeft=4;spacingRight=4;overflow=hidden;points=[[0,0.5],[1,0.5]];portConstraint=eastwest;rotatable=0;whiteSpace=wrap;html=1;" vertex="1" parent="ckLJkR33WfwNbVA9dTh0-27">
          <mxGeometry y="60" width="140" height="30" as="geometry" />
        </mxCell>
        <mxCell id="ckLJkR33WfwNbVA9dTh0-31" value="Campaign Goal" style="swimlane;fontStyle=0;childLayout=stackLayout;horizontal=1;startSize=30;horizontalStack=0;resizeParent=1;resizeParentMax=0;resizeLast=0;collapsible=1;marginBottom=0;whiteSpace=wrap;html=1;" vertex="1" parent="1">
          <mxGeometry x="680" y="374" width="140" height="150" as="geometry" />
        </mxCell>
        <mxCell id="ckLJkR33WfwNbVA9dTh0-32" value="Lead Generation" style="text;strokeColor=none;fillColor=none;align=left;verticalAlign=middle;spacingLeft=4;spacingRight=4;overflow=hidden;points=[[0,0.5],[1,0.5]];portConstraint=eastwest;rotatable=0;whiteSpace=wrap;html=1;" vertex="1" parent="ckLJkR33WfwNbVA9dTh0-31">
          <mxGeometry y="30" width="140" height="30" as="geometry" />
        </mxCell>
        <mxCell id="ckLJkR33WfwNbVA9dTh0-33" value="Convert to Member" style="text;strokeColor=none;fillColor=none;align=left;verticalAlign=middle;spacingLeft=4;spacingRight=4;overflow=hidden;points=[[0,0.5],[1,0.5]];portConstraint=eastwest;rotatable=0;whiteSpace=wrap;html=1;" vertex="1" parent="ckLJkR33WfwNbVA9dTh0-31">
          <mxGeometry y="60" width="140" height="30" as="geometry" />
        </mxCell>
        <mxCell id="ckLJkR33WfwNbVA9dTh0-34" value="Promotion" style="text;strokeColor=none;fillColor=none;align=left;verticalAlign=middle;spacingLeft=4;spacingRight=4;overflow=hidden;points=[[0,0.5],[1,0.5]];portConstraint=eastwest;rotatable=0;whiteSpace=wrap;html=1;" vertex="1" parent="ckLJkR33WfwNbVA9dTh0-31">
          <mxGeometry y="90" width="140" height="30" as="geometry" />
        </mxCell>
        <mxCell id="ckLJkR33WfwNbVA9dTh0-37" value="Create Awareness" style="text;strokeColor=none;fillColor=none;align=left;verticalAlign=middle;spacingLeft=4;spacingRight=4;overflow=hidden;points=[[0,0.5],[1,0.5]];portConstraint=eastwest;rotatable=0;whiteSpace=wrap;html=1;" vertex="1" parent="ckLJkR33WfwNbVA9dTh0-31">
          <mxGeometry y="120" width="140" height="30" as="geometry" />
        </mxCell>
        <mxCell id="ckLJkR33WfwNbVA9dTh0-35" value="" style="rounded=1;whiteSpace=wrap;html=1;" vertex="1" parent="1">
          <mxGeometry x="890" y="300" width="280" height="110" as="geometry" />
        </mxCell>
        <mxCell id="ckLJkR33WfwNbVA9dTh0-36" value="Campaign Title" style="text;html=1;strokeColor=none;fillColor=none;align=left;verticalAlign=middle;whiteSpace=wrap;rounded=0;" vertex="1" parent="1">
          <mxGeometry x="900" y="300" width="120" height="40" as="geometry" />
        </mxCell>
      </root>
    </mxGraphModel>
  </diagram>
</mxfile>
